<?xml version="1.0" encoding="utf-8" standalone="no"?>
<!DOCTYPE svg PUBLIC "-//W3C//DTD SVG 1.1//EN"
  "http://www.w3.org/Graphics/SVG/1.1/DTD/svg11.dtd">
<svg xmlns:xlink="http://www.w3.org/1999/xlink" width="936pt" height="576pt" viewBox="0 0 936 576" xmlns="http://www.w3.org/2000/svg" version="1.1">
 <metadata>
  <rdf:RDF xmlns:dc="http://purl.org/dc/elements/1.1/" xmlns:cc="http://creativecommons.org/ns#" xmlns:rdf="http://www.w3.org/1999/02/22-rdf-syntax-ns#">
   <cc:Work>
    <dc:type rdf:resource="http://purl.org/dc/dcmitype/StillImage"/>
    <dc:date>2022-03-09T10:06:33.999401</dc:date>
    <dc:format>image/svg+xml</dc:format>
    <dc:creator>
     <cc:Agent>
      <dc:title>Matplotlib v3.5.0, https://matplotlib.org/</dc:title>
     </cc:Agent>
    </dc:creator>
   </cc:Work>
  </rdf:RDF>
 </metadata>
 <defs>
  <style type="text/css">*{stroke-linejoin: round; stroke-linecap: butt}</style>
 </defs>
 <g id="figure_1">
  <g id="patch_1">
   <path d="M 0 576 
L 936 576 
L 936 0 
L 0 0 
L 0 576 
z
" style="fill: none"/>
  </g>
  <g id="axes_1">
   <g id="patch_2">
    <path d="M 97.4 503.8 
L 925.2 503.8 
L 925.2 10.8 
L 97.4 10.8 
L 97.4 503.8 
z
" style="fill: none"/>
   </g>
   <g id="PolyCollection_1">
    <path d="M 135.027273 481.29632 
L 135.027273 481.29632 
L 138.808908 480.369899 
L 142.590544 480.137351 
L 146.372179 479.896439 
L 150.153815 480.162547 
L 153.93545 479.937235 
L 157.717085 479.15391 
L 161.498721 478.208326 
L 165.280356 477.75304 
L 169.061992 476.569222 
L 172.843627 475.130286 
L 176.625263 473.613378 
L 180.406898 471.935911 
L 184.188534 470.828406 
L 187.970169 469.542988 
L 191.751804 468.538593 
L 195.53344 467.37126 
L 199.315075 466.613994 
L 203.096711 465.755979 
L 206.878346 465.295912 
L 210.659982 464.018107 
L 214.441617 462.566568 
L 218.223253 461.563933 
L 222.004888 459.910714 
L 225.786524 459.272678 
L 229.568159 458.683189 
L 233.349794 457.364116 
L 237.13143 455.972125 
L 240.913065 454.363861 
L 244.694701 452.297425 
L 248.476336 451.102034 
L 252.257972 450.226639 
L 256.039607 448.738454 
L 259.821243 447.708436 
L 263.602878 447.19951 
L 267.384513 446.712685 
L 271.166149 445.438023 
L 274.947784 444.802323 
L 278.72942 442.674517 
L 282.511055 440.156321 
L 286.292691 438.98491 
L 290.074326 437.2182 
L 293.855962 436.22304 
L 297.637597 434.346752 
L 301.419233 433.123147 
L 305.200868 431.779461 
L 308.982503 430.978221 
L 312.764139 428.396701 
L 316.545774 427.583618 
L 320.32741 427.193097 
L 324.109045 424.228215 
L 327.890681 425.645269 
L 331.672316 423.0635 
L 335.453952 421.127231 
L 339.235587 416.508629 
L 343.017222 416.270066 
L 346.798858 411.912896 
L 350.580493 408.832745 
L 354.362129 403.949844 
L 358.143764 405.318365 
L 361.9254 402.608421 
L 365.707035 399.41982 
L 369.488671 394.666694 
L 373.270306 390.697241 
L 377.051942 390.997893 
L 380.833577 386.110882 
L 384.615212 382.20034 
L 388.396848 375.271524 
L 392.178483 367.209194 
L 395.960119 359.830149 
L 399.741754 353.024054 
L 403.52339 353.351472 
L 407.305025 348.421785 
L 411.086661 344.409067 
L 414.868296 334.284675 
L 418.649931 326.7835 
L 422.431567 322.396646 
L 426.213202 315.718589 
L 429.994838 308.891062 
L 433.776473 302.784381 
L 437.558109 292.064234 
L 441.339744 283.028587 
L 445.12138 278.219017 
L 448.903015 265.214059 
L 452.684651 255.874932 
L 456.466286 251.180835 
L 460.247921 246.094747 
L 464.029557 238.532095 
L 467.811192 227.335082 
L 471.592828 220.202599 
L 475.374463 214.432184 
L 479.156099 208.548399 
L 482.937734 202.626438 
L 486.71937 198.014775 
L 490.501005 195.212393 
L 494.28264 191.819572 
L 498.064276 188.22622 
L 501.845911 185.761216 
L 505.627547 185.584454 
L 509.409182 183.594473 
L 513.190818 178.217046 
L 516.972453 172.488247 
L 520.754089 169.827942 
L 524.535724 170.112155 
L 528.31736 168.040365 
L 532.098995 167.109539 
L 535.88063 166.253998 
L 539.662266 159.663725 
L 543.443901 154.766113 
L 547.225537 156.495666 
L 551.007172 149.238179 
L 554.788808 143.898005 
L 558.570443 140.380659 
L 562.352079 136.340206 
L 566.133714 133.460604 
L 569.915349 131.658965 
L 573.696985 131.411797 
L 577.47862 132.210706 
L 581.260256 130.005973 
L 585.041891 125.437906 
L 588.823527 122.167423 
L 592.605162 120.203348 
L 596.386798 120.49663 
L 600.168433 120.901398 
L 603.950069 118.65666 
L 607.731704 118.129457 
L 611.513339 116.682663 
L 615.294975 116.016447 
L 619.07661 116.31948 
L 622.858246 116.244207 
L 626.639881 115.347508 
L 630.421517 116.031167 
L 634.203152 113.399279 
L 637.984788 112.120155 
L 641.766423 109.135971 
L 645.548058 108.668833 
L 649.329694 108.117621 
L 653.111329 106.585978 
L 656.892965 106.949494 
L 660.6746 106.10191 
L 664.456236 104.785205 
L 668.237871 103.960602 
L 672.019507 104.230491 
L 675.801142 104.483137 
L 679.582778 102.839698 
L 683.364413 103.306467 
L 687.146048 102.050153 
L 690.927684 100.375303 
L 694.709319 99.479688 
L 698.490955 98.146116 
L 702.27259 98.420001 
L 706.054226 97.688721 
L 709.835861 97.682912 
L 713.617497 95.163839 
L 717.399132 94.260644 
L 721.180767 92.601605 
L 724.962403 93.175751 
L 728.744038 91.200061 
L 732.525674 92.311812 
L 736.307309 92.240388 
L 740.088945 89.343 
L 743.87058 89.914049 
L 747.652216 88.316454 
L 751.433851 87.753123 
L 755.215487 85.634189 
L 758.997122 82.334861 
L 762.778757 82.595844 
L 766.560393 83.823569 
L 770.342028 81.332368 
L 774.123664 82.226681 
L 777.905299 82.266175 
L 781.686935 79.659418 
L 785.46857 81.100583 
L 789.250206 80.807598 
L 793.031841 80.156537 
L 796.813476 79.304836 
L 800.595112 77.097163 
L 804.376747 73.902865 
L 808.158383 72.599589 
L 811.940018 70.922894 
L 815.721654 67.881135 
L 819.503289 69.819636 
L 823.284925 65.840316 
L 827.06656 65.180516 
L 830.848196 65.164366 
L 834.629831 63.841377 
L 838.411466 64.691743 
L 842.193102 65.768565 
L 845.974737 65.085164 
L 849.756373 61.637772 
L 853.538008 60.581119 
L 857.319644 60.155425 
L 861.101279 57.558987 
L 864.882915 56.680097 
L 868.66455 56.396938 
L 872.446185 53.228038 
L 876.227821 53.937534 
L 880.009456 54.256537 
L 883.791092 56.868686 
L 887.572727 57.06109 
L 887.572727 35.108702 
L 887.572727 35.108702 
L 883.791092 35.643693 
L 880.009456 34.909614 
L 876.227821 33.209091 
L 872.446185 35.57184 
L 868.66455 35.36146 
L 864.882915 36.296206 
L 861.101279 36.204632 
L 857.319644 37.864821 
L 853.538008 42.008366 
L 849.756373 43.273666 
L 845.974737 42.292367 
L 842.193102 40.404721 
L 838.411466 37.569781 
L 834.629831 38.970163 
L 830.848196 45.159595 
L 827.06656 45.512849 
L 823.284925 46.16159 
L 819.503289 43.857447 
L 815.721654 44.785362 
L 811.940018 47.109466 
L 808.158383 48.883917 
L 804.376747 47.81688 
L 800.595112 49.182527 
L 796.813476 49.151579 
L 793.031841 49.499968 
L 789.250206 51.15542 
L 785.46857 53.039357 
L 781.686935 54.700269 
L 777.905299 56.162009 
L 774.123664 54.7828 
L 770.342028 57.507072 
L 766.560393 59.931116 
L 762.778757 58.550287 
L 758.997122 58.936506 
L 755.215487 60.753993 
L 751.433851 63.427394 
L 747.652216 64.227469 
L 743.87058 66.578179 
L 740.088945 65.387848 
L 736.307309 64.373704 
L 732.525674 63.806493 
L 728.744038 65.543158 
L 724.962403 68.527061 
L 721.180767 67.540638 
L 717.399132 67.81815 
L 713.617497 68.168186 
L 709.835861 70.09267 
L 706.054226 70.918519 
L 702.27259 71.674189 
L 698.490955 71.799918 
L 694.709319 72.603879 
L 690.927684 74.913169 
L 687.146048 75.61201 
L 683.364413 77.234946 
L 679.582778 79.372972 
L 675.801142 80.51134 
L 672.019507 79.801741 
L 668.237871 80.779113 
L 664.456236 84.694875 
L 660.6746 84.511696 
L 656.892965 87.389547 
L 653.111329 89.54625 
L 649.329694 90.09357 
L 645.548058 91.368055 
L 641.766423 94.110151 
L 637.984788 95.362606 
L 634.203152 94.635726 
L 630.421517 96.217164 
L 626.639881 96.680122 
L 622.858246 98.361665 
L 619.07661 99.78266 
L 615.294975 101.548469 
L 611.513339 101.789563 
L 607.731704 103.420174 
L 603.950069 105.765642 
L 600.168433 108.580912 
L 596.386798 109.740099 
L 592.605162 111.787574 
L 588.823527 111.738921 
L 585.041891 111.857039 
L 581.260256 113.686915 
L 577.47862 112.599374 
L 573.696985 114.24076 
L 569.915349 118.066601 
L 566.133714 117.964204 
L 562.352079 119.249265 
L 558.570443 122.727793 
L 554.788808 123.406122 
L 551.007172 126.633647 
L 547.225537 128.841856 
L 543.443901 130.042044 
L 539.662266 131.883541 
L 535.88063 137.417532 
L 532.098995 139.312982 
L 528.31736 143.798518 
L 524.535724 146.424318 
L 520.754089 150.421317 
L 516.972453 150.256312 
L 513.190818 151.589551 
L 509.409182 154.760014 
L 505.627547 161.5025 
L 501.845911 165.452607 
L 498.064276 171.442354 
L 494.28264 175.711306 
L 490.501005 180.626488 
L 486.71937 183.082704 
L 482.937734 189.274748 
L 479.156099 194.770204 
L 475.374463 196.935197 
L 471.592828 210.198629 
L 467.811192 214.844966 
L 464.029557 221.905995 
L 460.247921 222.39721 
L 456.466286 227.949723 
L 452.684651 234.287682 
L 448.903015 240.229068 
L 445.12138 241.347035 
L 441.339744 243.257996 
L 437.558109 244.536628 
L 433.776473 243.775207 
L 429.994838 244.26752 
L 426.213202 244.355751 
L 422.431567 253.585819 
L 418.649931 257.34155 
L 414.868296 267.687473 
L 411.086661 273.142729 
L 407.305025 275.660607 
L 403.52339 281.955068 
L 399.741754 293.207631 
L 395.960119 311.460724 
L 392.178483 315.850725 
L 388.396848 328.222937 
L 384.615212 327.087495 
L 380.833577 334.780568 
L 377.051942 339.800618 
L 373.270306 345.245018 
L 369.488671 349.029353 
L 365.707035 356.786777 
L 361.9254 356.600379 
L 358.143764 357.773233 
L 354.362129 356.132739 
L 350.580493 357.564238 
L 346.798858 354.347999 
L 343.017222 358.898784 
L 339.235587 359.391611 
L 335.453952 362.534688 
L 331.672316 368.736786 
L 327.890681 372.031234 
L 324.109045 379.397417 
L 320.32741 384.990132 
L 316.545774 395.262995 
L 312.764139 400.88583 
L 308.982503 405.614858 
L 305.200868 409.260532 
L 301.419233 409.908972 
L 297.637597 411.525711 
L 293.855962 419.368876 
L 290.074326 420.78108 
L 286.292691 422.540431 
L 282.511055 426.786174 
L 278.72942 431.028161 
L 274.947784 431.274852 
L 271.166149 434.148377 
L 267.384513 435.397072 
L 263.602878 438.098157 
L 259.821243 439.72894 
L 256.039607 442.595267 
L 252.257972 444.372515 
L 248.476336 444.831579 
L 244.694701 445.702357 
L 240.913065 446.860147 
L 237.13143 448.123139 
L 233.349794 448.310843 
L 229.568159 449.74402 
L 225.786524 453.566327 
L 222.004888 456.06619 
L 218.223253 455.93001 
L 214.441617 458.035133 
L 210.659982 459.362004 
L 206.878346 460.68269 
L 203.096711 463.419485 
L 199.315075 465.505079 
L 195.53344 465.87969 
L 191.751804 466.862199 
L 187.970169 467.781181 
L 184.188534 469.222477 
L 180.406898 471.083763 
L 176.625263 472.111016 
L 172.843627 473.48633 
L 169.061992 474.880257 
L 165.280356 476.671028 
L 161.498721 477.727551 
L 157.717085 478.707609 
L 153.93545 479.694846 
L 150.153815 479.759262 
L 146.372179 479.791645 
L 142.590544 479.985614 
L 138.808908 480.252843 
L 135.027273 481.29632 
z
" clip-path="url(#pbd4987bac0)" style="fill: #1f77b4; fill-opacity: 0.15"/>
   </g>
   <g id="PolyCollection_2">
    <path d="M 135.027273 481.29632 
L 135.027273 481.29632 
L 138.808277 480.425228 
L 142.589282 480.140249 
L 146.370286 479.858552 
L 150.15129 480.009715 
L 153.932295 479.756481 
L 157.713299 479.039564 
L 161.494303 478.325503 
L 165.275308 477.210332 
L 169.056312 475.148039 
L 172.837317 473.630104 
L 176.618321 472.51862 
L 180.399325 471.091694 
L 184.18033 469.828353 
L 187.961334 468.742136 
L 191.742339 468.019485 
L 195.523343 467.620246 
L 199.304347 466.648071 
L 203.085352 465.428418 
L 206.866356 464.439089 
L 210.64736 463.551189 
L 214.428365 462.414396 
L 218.209369 461.382108 
L 221.990374 460.222271 
L 225.771378 458.997956 
L 229.552382 457.606306 
L 233.333387 456.30626 
L 237.114391 455.487504 
L 240.895396 454.290572 
L 244.6764 452.800754 
L 248.457404 451.293508 
L 252.238409 449.977728 
L 256.019413 448.383809 
L 259.800418 447.588748 
L 263.581422 446.706884 
L 267.362426 445.06588 
L 271.143431 443.904836 
L 274.924435 443.553601 
L 278.705439 442.161234 
L 282.486444 439.996192 
L 286.267448 435.558258 
L 290.048453 431.820774 
L 293.829457 430.23127 
L 297.610461 429.019156 
L 301.391466 427.201035 
L 305.17247 427.583927 
L 308.953475 424.097686 
L 312.734479 422.440521 
L 316.515483 422.171878 
L 320.296488 425.645886 
L 324.077492 422.697328 
L 327.858497 419.885317 
L 331.639501 420.226909 
L 335.420505 416.741163 
L 339.20151 413.854686 
L 342.982514 411.344946 
L 346.763518 406.91031 
L 350.544523 403.990573 
L 354.325527 400.296953 
L 358.106532 396.196062 
L 361.887536 392.60553 
L 365.66854 391.033563 
L 369.449545 385.36573 
L 373.230549 381.147507 
L 377.011554 375.162722 
L 380.792558 372.60701 
L 384.573562 372.932962 
L 388.354567 372.263068 
L 392.135571 367.604819 
L 395.916576 361.600111 
L 399.69758 355.705042 
L 403.478584 351.327346 
L 407.259589 350.070363 
L 411.040593 347.49763 
L 414.821597 346.07552 
L 418.602602 341.141222 
L 422.383606 333.859301 
L 426.164611 320.460207 
L 429.945615 313.339343 
L 433.726619 308.666106 
L 437.507624 304.047806 
L 441.288628 304.493058 
L 445.069633 294.417021 
L 448.850637 292.418667 
L 452.631641 288.343257 
L 456.412646 273.755257 
L 460.19365 271.466962 
L 463.974655 272.263879 
L 467.755659 271.673682 
L 471.536663 270.369563 
L 475.317668 270.510266 
L 479.098672 262.510207 
L 482.879676 259.73899 
L 486.660681 253.389163 
L 490.441685 246.244501 
L 494.22269 238.544605 
L 498.003694 237.475993 
L 501.784698 236.124548 
L 505.565703 232.468457 
L 509.346707 224.981598 
L 513.127712 223.105087 
L 516.908716 219.426879 
L 520.68972 218.624935 
L 524.470725 217.192463 
L 528.251729 216.78405 
L 532.032734 211.427672 
L 535.813738 211.009851 
L 539.594742 213.436088 
L 543.375747 212.92315 
L 547.156751 206.716474 
L 550.937755 202.563438 
L 554.71876 198.184277 
L 558.499764 196.582949 
L 562.280769 192.504287 
L 566.061773 187.127467 
L 569.842777 181.362578 
L 573.623782 180.46458 
L 577.404786 175.471585 
L 581.185791 173.960652 
L 584.966795 173.531052 
L 588.747799 171.141299 
L 592.528804 163.994446 
L 596.309808 160.78437 
L 600.090813 159.126401 
L 603.871817 159.44805 
L 607.652821 157.212335 
L 611.433826 155.655383 
L 615.21483 154.704373 
L 618.995834 151.812552 
L 622.776839 150.193949 
L 626.557843 147.241882 
L 630.338848 145.986518 
L 634.119852 146.572842 
L 637.900856 142.50413 
L 641.681861 139.208143 
L 645.462865 137.022847 
L 649.24387 134.485372 
L 653.024874 134.163044 
L 656.805878 132.287998 
L 660.586883 131.177693 
L 664.367887 125.843416 
L 668.148892 122.629757 
L 671.929896 117.991744 
L 675.7109 116.165156 
L 679.491905 115.884266 
L 683.272909 116.17547 
L 687.053913 118.468774 
L 690.834918 117.163471 
L 694.615922 115.319073 
L 698.396927 115.872119 
L 702.177931 114.543324 
L 705.958935 113.952062 
L 709.73994 113.135076 
L 713.520944 110.399396 
L 717.301949 112.20339 
L 721.082953 112.221496 
L 724.863957 113.58971 
L 728.644962 114.110575 
L 732.425966 113.973722 
L 736.206971 116.99893 
L 739.987975 116.527584 
L 743.768979 117.926414 
L 747.549984 120.182107 
L 751.330988 115.844563 
L 755.111992 110.749846 
L 758.892997 111.283421 
L 762.674001 110.37145 
L 766.455006 111.933021 
L 770.23601 113.027407 
L 774.017014 113.821884 
L 777.798019 114.160869 
L 781.579023 114.861388 
L 785.360028 113.539635 
L 789.141032 108.516261 
L 792.922036 108.301977 
L 796.703041 111.446588 
L 800.484045 110.79837 
L 804.26505 108.230611 
L 808.046054 107.942618 
L 811.827058 107.57637 
L 815.608063 107.224409 
L 819.389067 107.328705 
L 823.170071 106.320044 
L 826.951076 106.170372 
L 830.73208 107.251689 
L 834.513085 105.3638 
L 838.294089 105.758121 
L 842.075093 107.278677 
L 845.856098 106.542991 
L 849.637102 107.264099 
L 853.418107 103.250183 
L 857.199111 103.594194 
L 860.980115 101.75971 
L 864.76112 100.577752 
L 868.542124 100.685147 
L 872.323128 100.068489 
L 876.104133 99.725299 
L 879.885137 99.545768 
L 883.666142 101.185407 
L 887.447146 98.79746 
L 887.447146 57.541491 
L 887.447146 57.541491 
L 883.666142 55.108334 
L 879.885137 56.639791 
L 876.104133 54.263307 
L 872.323128 57.166525 
L 868.542124 55.649757 
L 864.76112 56.817513 
L 860.980115 57.160605 
L 857.199111 60.886658 
L 853.418107 58.455016 
L 849.637102 55.485467 
L 845.856098 59.278618 
L 842.075093 59.455988 
L 838.294089 63.009116 
L 834.513085 63.365326 
L 830.73208 66.001053 
L 826.951076 67.3416 
L 823.170071 67.768197 
L 819.389067 68.14355 
L 815.608063 66.934986 
L 811.827058 64.201202 
L 808.046054 66.707176 
L 804.26505 70.183076 
L 800.484045 70.610075 
L 796.703041 67.347748 
L 792.922036 71.634421 
L 789.141032 71.500817 
L 785.360028 72.347926 
L 781.579023 72.310155 
L 777.798019 73.599727 
L 774.017014 72.679612 
L 770.23601 75.083356 
L 766.455006 77.803367 
L 762.674001 80.017036 
L 758.892997 76.978086 
L 755.111992 79.94882 
L 751.330988 79.700024 
L 747.549984 77.25843 
L 743.768979 75.465776 
L 739.987975 74.78365 
L 736.206971 74.211509 
L 732.425966 73.531319 
L 728.644962 74.856971 
L 724.863957 75.793207 
L 721.082953 74.556059 
L 717.301949 75.801949 
L 713.520944 78.312909 
L 709.73994 79.952355 
L 705.958935 79.709551 
L 702.177931 83.098748 
L 698.396927 81.638288 
L 694.615922 84.452628 
L 690.834918 86.764833 
L 687.053913 86.239999 
L 683.272909 86.54887 
L 679.491905 88.715395 
L 675.7109 92.710279 
L 671.929896 93.981101 
L 668.148892 94.45535 
L 664.367887 97.787013 
L 660.586883 102.111066 
L 656.805878 105.489822 
L 653.024874 108.246896 
L 649.24387 109.740854 
L 645.462865 110.150737 
L 641.681861 111.168539 
L 637.900856 111.300748 
L 634.119852 114.194466 
L 630.338848 112.597774 
L 626.557843 112.19887 
L 622.776839 114.010882 
L 618.995834 115.071264 
L 615.21483 115.269812 
L 611.433826 118.697148 
L 607.652821 115.896924 
L 603.871817 116.237308 
L 600.090813 114.773185 
L 596.309808 115.221844 
L 592.528804 116.918897 
L 588.747799 118.740823 
L 584.966795 119.346755 
L 581.185791 121.341698 
L 577.404786 121.154891 
L 573.623782 122.571928 
L 569.842777 126.006311 
L 566.061773 127.767085 
L 562.280769 127.387615 
L 558.499764 129.483492 
L 554.71876 130.910788 
L 550.937755 132.685226 
L 547.156751 135.004909 
L 543.375747 136.455976 
L 539.594742 141.000477 
L 535.813738 146.180284 
L 532.032734 149.068342 
L 528.251729 154.350447 
L 524.470725 152.278695 
L 520.68972 158.668613 
L 516.908716 163.122416 
L 513.127712 167.318465 
L 509.346707 167.420886 
L 505.565703 171.264883 
L 501.784698 171.478015 
L 498.003694 175.812188 
L 494.22269 179.083442 
L 490.441685 183.786859 
L 486.660681 184.250127 
L 482.879676 188.052834 
L 479.098672 189.593008 
L 475.317668 189.641524 
L 471.536663 192.612951 
L 467.755659 195.789504 
L 463.974655 203.258144 
L 460.19365 209.712624 
L 456.412646 211.453293 
L 452.631641 217.420358 
L 448.850637 222.036416 
L 445.069633 229.127551 
L 441.288628 237.738249 
L 437.507624 242.639866 
L 433.726619 247.728399 
L 429.945615 251.384819 
L 426.164611 257.181179 
L 422.383606 259.895998 
L 418.602602 263.683108 
L 414.821597 264.616158 
L 411.040593 268.64776 
L 407.259589 271.820257 
L 403.478584 274.64143 
L 399.69758 275.240738 
L 395.916576 281.718543 
L 392.135571 287.936953 
L 388.354567 290.58657 
L 384.573562 292.329915 
L 380.792558 297.979964 
L 377.011554 303.51408 
L 373.230549 310.674728 
L 369.449545 315.411739 
L 365.66854 322.433603 
L 361.887536 330.494383 
L 358.106532 335.979378 
L 354.325527 338.42479 
L 350.544523 347.614321 
L 346.763518 357.127276 
L 342.982514 360.916591 
L 339.20151 366.939268 
L 335.420505 368.499376 
L 331.639501 373.992447 
L 327.858497 378.762654 
L 324.077492 380.29524 
L 320.296488 386.268837 
L 316.515483 381.708912 
L 312.734479 383.511132 
L 308.953475 387.684216 
L 305.17247 394.540629 
L 301.391466 394.151779 
L 297.610461 400.579945 
L 293.829457 402.874029 
L 290.048453 411.115398 
L 286.267448 415.718093 
L 282.486444 421.46785 
L 278.705439 425.311075 
L 274.924435 433.299643 
L 271.143431 435.142235 
L 267.362426 436.885582 
L 263.581422 437.935793 
L 259.800418 438.365833 
L 256.019413 442.27702 
L 252.238409 442.637875 
L 248.457404 442.474273 
L 244.6764 443.333819 
L 240.895396 446.168902 
L 237.114391 447.798179 
L 233.333387 450.226948 
L 229.552382 452.185377 
L 225.771378 455.339511 
L 221.990374 456.927379 
L 218.209369 458.254126 
L 214.428365 459.488391 
L 210.64736 460.073812 
L 206.866356 461.235585 
L 203.085352 462.614289 
L 199.304347 463.629217 
L 195.523343 464.705416 
L 191.742339 466.907287 
L 187.961334 467.954665 
L 184.18033 468.945846 
L 180.399325 470.005875 
L 176.618321 471.179959 
L 172.837317 472.741408 
L 169.056312 474.433105 
L 165.275308 476.295177 
L 161.494303 477.648029 
L 157.713299 478.64393 
L 153.932295 479.469305 
L 150.15129 479.943839 
L 146.370286 479.735409 
L 142.589282 479.760038 
L 138.808277 480.317461 
L 135.027273 481.29632 
z
" clip-path="url(#pbd4987bac0)" style="fill: #ff7f0e; fill-opacity: 0.15"/>
   </g>
   <g id="PolyCollection_3">
    <path d="M 135.027273 481.012553 
L 135.027273 481.390909 
L 138.808908 480.194842 
L 142.590544 479.961669 
L 146.372179 480.143029 
L 150.153815 479.991802 
L 153.93545 480.076659 
L 157.717085 479.588205 
L 161.498721 478.569294 
L 165.280356 477.366895 
L 169.061992 475.947033 
L 172.843627 474.300537 
L 176.625263 472.882486 
L 180.406898 471.194176 
L 184.188534 469.914985 
L 187.970169 468.838439 
L 191.751804 468.20942 
L 195.53344 466.942539 
L 199.315075 465.437507 
L 203.096711 464.037787 
L 206.878346 462.716842 
L 210.659982 461.538408 
L 214.441617 461.238394 
L 218.223253 459.413334 
L 222.004888 458.375934 
L 225.786524 456.693327 
L 229.568159 454.26876 
L 233.349794 453.097346 
L 237.13143 451.454587 
L 240.913065 449.985139 
L 244.694701 447.850275 
L 248.476336 445.822621 
L 252.257972 444.637215 
L 256.039607 442.436712 
L 259.821243 440.073637 
L 263.602878 437.264925 
L 267.384513 434.926364 
L 271.166149 434.471292 
L 274.947784 433.348987 
L 278.72942 432.064997 
L 282.511055 431.409258 
L 286.292691 429.808707 
L 290.074326 427.019146 
L 293.855962 426.185067 
L 297.637597 424.67574 
L 301.419233 421.730305 
L 305.200868 418.458498 
L 308.982503 415.25587 
L 312.764139 412.389055 
L 316.545774 410.759488 
L 320.32741 410.582221 
L 324.109045 406.605952 
L 327.890681 403.271659 
L 331.672316 403.793108 
L 335.453952 399.878407 
L 339.235587 397.148866 
L 343.017222 391.284346 
L 346.798858 387.109369 
L 350.580493 381.74645 
L 354.362129 373.855622 
L 358.143764 363.651315 
L 361.9254 363.678304 
L 365.707035 357.772209 
L 369.488671 348.181557 
L 373.270306 343.289362 
L 377.051942 335.493292 
L 380.833577 329.318968 
L 384.615212 321.091199 
L 388.396848 307.517072 
L 392.178483 304.613764 
L 395.960119 307.199386 
L 399.741754 294.39932 
L 403.52339 280.934359 
L 407.305025 275.319321 
L 411.086661 267.975789 
L 414.868296 262.565002 
L 418.649931 262.610398 
L 422.431567 258.206898 
L 426.213202 253.917096 
L 429.994838 252.287942 
L 433.776473 245.160219 
L 437.558109 236.64196 
L 441.339744 228.624502 
L 445.12138 227.226888 
L 448.903015 224.540014 
L 452.684651 218.35205 
L 456.466286 218.175627 
L 460.247921 210.709281 
L 464.029557 203.236753 
L 467.811192 194.865027 
L 471.592828 188.639285 
L 475.374463 183.778214 
L 479.156099 177.829389 
L 482.937734 175.139215 
L 486.71937 172.552351 
L 490.501005 170.328183 
L 494.28264 165.460819 
L 498.064276 161.330448 
L 501.845911 158.243768 
L 505.627547 160.880661 
L 509.409182 160.250789 
L 513.190818 159.027632 
L 516.972453 155.471441 
L 520.754089 152.80979 
L 524.535724 150.828597 
L 528.31736 152.366742 
L 532.098995 151.527844 
L 535.88063 152.373057 
L 539.662266 148.278438 
L 543.443901 142.521448 
L 547.225537 138.842248 
L 551.007172 138.369562 
L 554.788808 138.107573 
L 558.570443 138.141878 
L 562.352079 133.917285 
L 566.133714 129.717242 
L 569.915349 127.676336 
L 573.696985 127.548375 
L 577.47862 124.113618 
L 581.260256 124.774863 
L 585.041891 123.516535 
L 588.823527 123.434656 
L 592.605162 122.227266 
L 596.386798 120.484097 
L 600.168433 119.245588 
L 603.950069 117.254858 
L 607.731704 115.392436 
L 611.513339 114.674846 
L 615.294975 113.615215 
L 619.07661 112.140398 
L 622.858246 108.824672 
L 626.639881 107.124684 
L 630.421517 106.280364 
L 634.203152 106.30005 
L 637.984788 104.688163 
L 641.766423 110.35561 
L 645.548058 110.405663 
L 649.329694 109.546832 
L 653.111329 108.394491 
L 656.892965 107.729931 
L 660.6746 106.329438 
L 664.456236 106.691408 
L 668.237871 105.97399 
L 672.019507 104.55381 
L 675.801142 106.71713 
L 679.582778 108.407287 
L 683.364413 108.29545 
L 687.146048 108.702805 
L 690.927684 108.516343 
L 694.709319 105.948676 
L 698.490955 107.079483 
L 702.27259 107.107693 
L 706.054226 104.37607 
L 709.835861 100.151364 
L 713.617497 97.681736 
L 717.399132 96.745212 
L 721.180767 96.019768 
L 724.962403 97.277496 
L 728.744038 98.823429 
L 732.525674 97.43725 
L 736.307309 97.815684 
L 740.088945 95.775965 
L 743.87058 95.5014 
L 747.652216 94.966376 
L 751.433851 93.701468 
L 755.215487 93.04304 
L 758.997122 92.659421 
L 762.778757 92.155696 
L 766.560393 90.407808 
L 770.342028 89.88069 
L 774.123664 88.882743 
L 777.905299 85.000285 
L 781.686935 82.118011 
L 785.46857 82.224416 
L 789.250206 83.356777 
L 793.031841 83.479968 
L 796.813476 81.217515 
L 800.595112 80.209144 
L 804.376747 79.26915 
L 808.158383 75.949166 
L 811.940018 76.124882 
L 815.721654 73.403534 
L 819.503289 74.897304 
L 823.284925 75.882187 
L 827.06656 74.495784 
L 830.848196 72.374233 
L 834.629831 72.117704 
L 838.411466 71.58985 
L 842.193102 70.067275 
L 845.974737 66.454925 
L 849.756373 67.156558 
L 853.538008 67.317479 
L 857.319644 66.317357 
L 861.101279 64.772678 
L 864.882915 66.893299 
L 868.66455 65.686318 
L 872.446185 64.554766 
L 876.227821 62.511964 
L 880.009456 61.481857 
L 883.791092 57.638113 
L 887.572727 59.645443 
L 887.572727 40.163355 
L 887.572727 40.163355 
L 883.791092 43.912504 
L 880.009456 44.901267 
L 876.227821 49.452033 
L 872.446185 54.656861 
L 868.66455 55.393473 
L 864.882915 56.754942 
L 861.101279 58.773277 
L 857.319644 59.958477 
L 853.538008 60.778176 
L 849.756373 59.085708 
L 845.974737 58.76307 
L 842.193102 57.623023 
L 838.411466 57.942356 
L 834.629831 57.008882 
L 830.848196 57.181281 
L 827.06656 58.826357 
L 823.284925 58.079387 
L 819.503289 57.05545 
L 815.721654 56.98836 
L 811.940018 57.398663 
L 808.158383 56.179072 
L 804.376747 58.424366 
L 800.595112 60.966044 
L 796.813476 61.08312 
L 793.031841 62.705888 
L 789.250206 62.508594 
L 785.46857 63.092791 
L 781.686935 62.592027 
L 777.905299 64.718302 
L 774.123664 64.006537 
L 770.342028 64.158235 
L 766.560393 64.762988 
L 762.778757 70.455188 
L 758.997122 71.109588 
L 755.215487 73.655099 
L 751.433851 78.70342 
L 747.652216 77.569216 
L 743.87058 80.179221 
L 740.088945 80.721422 
L 736.307309 82.709028 
L 732.525674 85.808857 
L 728.744038 89.048977 
L 724.962403 89.797736 
L 721.180767 89.89964 
L 717.399132 87.967004 
L 713.617497 88.639354 
L 709.835861 87.993103 
L 706.054226 91.055999 
L 702.27259 89.124497 
L 698.490955 88.157956 
L 694.709319 89.334555 
L 690.927684 91.095847 
L 687.146048 93.557483 
L 683.364413 93.34784 
L 679.582778 90.316895 
L 675.801142 93.550504 
L 672.019507 93.306341 
L 668.237871 94.052833 
L 664.456236 93.48185 
L 660.6746 95.534931 
L 656.892965 96.75749 
L 653.111329 95.584586 
L 649.329694 98.150434 
L 645.548058 97.772654 
L 641.766423 98.681201 
L 637.984788 99.028859 
L 634.203152 97.684769 
L 630.421517 97.510155 
L 626.639881 101.975327 
L 622.858246 101.422258 
L 619.07661 102.640233 
L 615.294975 103.353763 
L 611.513339 109.014299 
L 607.731704 109.80223 
L 603.950069 112.174893 
L 600.168433 111.619324 
L 596.386798 112.152351 
L 592.605162 112.780466 
L 588.823527 113.179873 
L 585.041891 115.358886 
L 581.260256 117.032754 
L 577.47862 117.903504 
L 573.696985 119.002255 
L 569.915349 120.126801 
L 566.133714 121.553696 
L 562.352079 123.431525 
L 558.570443 125.899772 
L 554.788808 125.600221 
L 551.007172 129.04439 
L 547.225537 128.466238 
L 543.443901 127.466305 
L 539.662266 126.44031 
L 535.88063 129.269687 
L 532.098995 130.144676 
L 528.31736 133.069736 
L 524.535724 135.172411 
L 520.754089 134.14225 
L 516.972453 137.620259 
L 513.190818 141.544027 
L 509.409182 144.182296 
L 505.627547 144.911082 
L 501.845911 149.3057 
L 498.064276 149.091855 
L 494.28264 150.29322 
L 490.501005 150.250853 
L 486.71937 153.796599 
L 482.937734 154.379088 
L 479.156099 156.69195 
L 475.374463 158.673686 
L 471.592828 160.187986 
L 467.811192 163.525113 
L 464.029557 167.847039 
L 460.247921 174.129382 
L 456.466286 179.99594 
L 452.684651 179.756688 
L 448.903015 185.181604 
L 445.12138 184.071786 
L 441.339744 198.03011 
L 437.558109 204.960151 
L 433.776473 212.396983 
L 429.994838 220.29337 
L 426.213202 222.167037 
L 422.431567 225.964412 
L 418.649931 239.283528 
L 414.868296 245.153832 
L 411.086661 249.533896 
L 407.305025 254.815781 
L 403.52339 266.508167 
L 399.741754 271.489215 
L 395.960119 277.441608 
L 392.178483 280.877378 
L 388.396848 285.34975 
L 384.615212 286.441192 
L 380.833577 296.214606 
L 377.051942 298.346425 
L 373.270306 302.795692 
L 369.488671 305.773957 
L 365.707035 314.346159 
L 361.9254 316.34743 
L 358.143764 317.392519 
L 354.362129 324.209221 
L 350.580493 329.458614 
L 346.798858 331.333069 
L 343.017222 332.957123 
L 339.235587 345.0348 
L 335.453952 351.907922 
L 331.672316 349.177577 
L 327.890681 351.70024 
L 324.109045 356.835632 
L 320.32741 361.529783 
L 316.545774 363.354417 
L 312.764139 369.841987 
L 308.982503 368.68582 
L 305.200868 367.72934 
L 301.419233 369.307703 
L 297.637597 380.319046 
L 293.855962 387.287206 
L 290.074326 388.472568 
L 286.292691 397.030448 
L 282.511055 403.460967 
L 278.72942 409.233319 
L 274.947784 420.199927 
L 271.166149 424.372341 
L 267.384513 425.860884 
L 263.602878 428.169669 
L 259.821243 431.600483 
L 256.039607 433.767266 
L 252.257972 436.374815 
L 248.476336 439.488199 
L 244.694701 440.635296 
L 240.913065 443.560577 
L 237.13143 445.121666 
L 233.349794 446.786817 
L 229.568159 448.631745 
L 225.786524 450.018866 
L 222.004888 451.530309 
L 218.223253 454.404784 
L 214.441617 456.166438 
L 210.659982 459.585859 
L 206.878346 460.986621 
L 203.096711 462.629321 
L 199.315075 464.224878 
L 195.53344 465.408728 
L 191.751804 466.269246 
L 187.970169 467.538541 
L 184.188534 468.610358 
L 180.406898 469.745832 
L 176.625263 471.001291 
L 172.843627 472.24665 
L 169.061992 473.506339 
L 165.280356 475.382088 
L 161.498721 477.29411 
L 157.717085 478.83347 
L 153.93545 479.231367 
L 150.153815 479.719668 
L 146.372179 479.986514 
L 142.590544 479.637549 
L 138.808908 480.124384 
L 135.027273 481.012553 
z
" clip-path="url(#pbd4987bac0)" style="fill: #2ca02c; fill-opacity: 0.15"/>
   </g>
   <g id="matplotlib.axis_1">
    <g id="xtick_1">
     <g id="line2d_1">
      <path d="M 134.148204 503.8 
L 134.148204 10.8 
" clip-path="url(#pbd4987bac0)" style="fill: none; stroke: #b0b0b0; stroke-width: 0.8; stroke-linecap: square"/>
     </g>
     <g id="line2d_2">
      <defs>
       <path id="m6c85411828" d="M 0 0 
L 0 3.5 
" style="stroke: #000000; stroke-width: 0.8"/>
      </defs>
      <g>
       <use xlink:href="#m6c85411828" x="134.148204" y="503.8" style="stroke: #000000; stroke-width: 0.8"/>
      </g>
     </g>
     <g id="text_1">
      <!-- 0.0 -->
      <g transform="translate(113.474142 530.555938)scale(0.26 -0.26)">
       <defs>
        <path id="DejaVuSans-30" d="M 2034 4250 
Q 1547 4250 1301 3770 
Q 1056 3291 1056 2328 
Q 1056 1369 1301 889 
Q 1547 409 2034 409 
Q 2525 409 2770 889 
Q 3016 1369 3016 2328 
Q 3016 3291 2770 3770 
Q 2525 4250 2034 4250 
z
M 2034 4750 
Q 2819 4750 3233 4129 
Q 3647 3509 3647 2328 
Q 3647 1150 3233 529 
Q 2819 -91 2034 -91 
Q 1250 -91 836 529 
Q 422 1150 422 2328 
Q 422 3509 836 4129 
Q 1250 4750 2034 4750 
z
" transform="scale(0.015625)"/>
        <path id="DejaVuSans-2e" d="M 684 794 
L 1344 794 
L 1344 0 
L 684 0 
L 684 794 
z
" transform="scale(0.015625)"/>
       </defs>
       <use xlink:href="#DejaVuSans-30"/>
       <use xlink:href="#DejaVuSans-2e" x="63.623047"/>
       <use xlink:href="#DejaVuSans-30" x="95.410156"/>
      </g>
     </g>
    </g>
    <g id="xtick_2">
     <g id="line2d_3">
      <path d="M 259.729423 503.8 
L 259.729423 10.8 
" clip-path="url(#pbd4987bac0)" style="fill: none; stroke: #b0b0b0; stroke-width: 0.8; stroke-linecap: square"/>
     </g>
     <g id="line2d_4">
      <g>
       <use xlink:href="#m6c85411828" x="259.729423" y="503.8" style="stroke: #000000; stroke-width: 0.8"/>
      </g>
     </g>
     <g id="text_2">
      <!-- 0.2 -->
      <g transform="translate(239.055361 530.555938)scale(0.26 -0.26)">
       <defs>
        <path id="DejaVuSans-32" d="M 1228 531 
L 3431 531 
L 3431 0 
L 469 0 
L 469 531 
Q 828 903 1448 1529 
Q 2069 2156 2228 2338 
Q 2531 2678 2651 2914 
Q 2772 3150 2772 3378 
Q 2772 3750 2511 3984 
Q 2250 4219 1831 4219 
Q 1534 4219 1204 4116 
Q 875 4013 500 3803 
L 500 4441 
Q 881 4594 1212 4672 
Q 1544 4750 1819 4750 
Q 2544 4750 2975 4387 
Q 3406 4025 3406 3419 
Q 3406 3131 3298 2873 
Q 3191 2616 2906 2266 
Q 2828 2175 2409 1742 
Q 1991 1309 1228 531 
z
" transform="scale(0.015625)"/>
       </defs>
       <use xlink:href="#DejaVuSans-30"/>
       <use xlink:href="#DejaVuSans-2e" x="63.623047"/>
       <use xlink:href="#DejaVuSans-32" x="95.410156"/>
      </g>
     </g>
    </g>
    <g id="xtick_3">
     <g id="line2d_5">
      <path d="M 385.310642 503.8 
L 385.310642 10.8 
" clip-path="url(#pbd4987bac0)" style="fill: none; stroke: #b0b0b0; stroke-width: 0.8; stroke-linecap: square"/>
     </g>
     <g id="line2d_6">
      <g>
       <use xlink:href="#m6c85411828" x="385.310642" y="503.8" style="stroke: #000000; stroke-width: 0.8"/>
      </g>
     </g>
     <g id="text_3">
      <!-- 0.4 -->
      <g transform="translate(364.63658 530.555938)scale(0.26 -0.26)">
       <defs>
        <path id="DejaVuSans-34" d="M 2419 4116 
L 825 1625 
L 2419 1625 
L 2419 4116 
z
M 2253 4666 
L 3047 4666 
L 3047 1625 
L 3713 1625 
L 3713 1100 
L 3047 1100 
L 3047 0 
L 2419 0 
L 2419 1100 
L 313 1100 
L 313 1709 
L 2253 4666 
z
" transform="scale(0.015625)"/>
       </defs>
       <use xlink:href="#DejaVuSans-30"/>
       <use xlink:href="#DejaVuSans-2e" x="63.623047"/>
       <use xlink:href="#DejaVuSans-34" x="95.410156"/>
      </g>
     </g>
    </g>
    <g id="xtick_4">
     <g id="line2d_7">
      <path d="M 510.891861 503.8 
L 510.891861 10.8 
" clip-path="url(#pbd4987bac0)" style="fill: none; stroke: #b0b0b0; stroke-width: 0.8; stroke-linecap: square"/>
     </g>
     <g id="line2d_8">
      <g>
       <use xlink:href="#m6c85411828" x="510.891861" y="503.8" style="stroke: #000000; stroke-width: 0.8"/>
      </g>
     </g>
     <g id="text_4">
      <!-- 0.6 -->
      <g transform="translate(490.217799 530.555938)scale(0.26 -0.26)">
       <defs>
        <path id="DejaVuSans-36" d="M 2113 2584 
Q 1688 2584 1439 2293 
Q 1191 2003 1191 1497 
Q 1191 994 1439 701 
Q 1688 409 2113 409 
Q 2538 409 2786 701 
Q 3034 994 3034 1497 
Q 3034 2003 2786 2293 
Q 2538 2584 2113 2584 
z
M 3366 4563 
L 3366 3988 
Q 3128 4100 2886 4159 
Q 2644 4219 2406 4219 
Q 1781 4219 1451 3797 
Q 1122 3375 1075 2522 
Q 1259 2794 1537 2939 
Q 1816 3084 2150 3084 
Q 2853 3084 3261 2657 
Q 3669 2231 3669 1497 
Q 3669 778 3244 343 
Q 2819 -91 2113 -91 
Q 1303 -91 875 529 
Q 447 1150 447 2328 
Q 447 3434 972 4092 
Q 1497 4750 2381 4750 
Q 2619 4750 2861 4703 
Q 3103 4656 3366 4563 
z
" transform="scale(0.015625)"/>
       </defs>
       <use xlink:href="#DejaVuSans-30"/>
       <use xlink:href="#DejaVuSans-2e" x="63.623047"/>
       <use xlink:href="#DejaVuSans-36" x="95.410156"/>
      </g>
     </g>
    </g>
    <g id="xtick_5">
     <g id="line2d_9">
      <path d="M 636.47308 503.8 
L 636.47308 10.8 
" clip-path="url(#pbd4987bac0)" style="fill: none; stroke: #b0b0b0; stroke-width: 0.8; stroke-linecap: square"/>
     </g>
     <g id="line2d_10">
      <g>
       <use xlink:href="#m6c85411828" x="636.47308" y="503.8" style="stroke: #000000; stroke-width: 0.8"/>
      </g>
     </g>
     <g id="text_5">
      <!-- 0.8 -->
      <g transform="translate(615.799017 530.555938)scale(0.26 -0.26)">
       <defs>
        <path id="DejaVuSans-38" d="M 2034 2216 
Q 1584 2216 1326 1975 
Q 1069 1734 1069 1313 
Q 1069 891 1326 650 
Q 1584 409 2034 409 
Q 2484 409 2743 651 
Q 3003 894 3003 1313 
Q 3003 1734 2745 1975 
Q 2488 2216 2034 2216 
z
M 1403 2484 
Q 997 2584 770 2862 
Q 544 3141 544 3541 
Q 544 4100 942 4425 
Q 1341 4750 2034 4750 
Q 2731 4750 3128 4425 
Q 3525 4100 3525 3541 
Q 3525 3141 3298 2862 
Q 3072 2584 2669 2484 
Q 3125 2378 3379 2068 
Q 3634 1759 3634 1313 
Q 3634 634 3220 271 
Q 2806 -91 2034 -91 
Q 1263 -91 848 271 
Q 434 634 434 1313 
Q 434 1759 690 2068 
Q 947 2378 1403 2484 
z
M 1172 3481 
Q 1172 3119 1398 2916 
Q 1625 2713 2034 2713 
Q 2441 2713 2670 2916 
Q 2900 3119 2900 3481 
Q 2900 3844 2670 4047 
Q 2441 4250 2034 4250 
Q 1625 4250 1398 4047 
Q 1172 3844 1172 3481 
z
" transform="scale(0.015625)"/>
       </defs>
       <use xlink:href="#DejaVuSans-30"/>
       <use xlink:href="#DejaVuSans-2e" x="63.623047"/>
       <use xlink:href="#DejaVuSans-38" x="95.410156"/>
      </g>
     </g>
    </g>
    <g id="xtick_6">
     <g id="line2d_11">
      <path d="M 762.054299 503.8 
L 762.054299 10.8 
" clip-path="url(#pbd4987bac0)" style="fill: none; stroke: #b0b0b0; stroke-width: 0.8; stroke-linecap: square"/>
     </g>
     <g id="line2d_12">
      <g>
       <use xlink:href="#m6c85411828" x="762.054299" y="503.8" style="stroke: #000000; stroke-width: 0.8"/>
      </g>
     </g>
     <g id="text_6">
      <!-- 1.0 -->
      <g transform="translate(741.380236 530.555938)scale(0.26 -0.26)">
       <defs>
        <path id="DejaVuSans-31" d="M 794 531 
L 1825 531 
L 1825 4091 
L 703 3866 
L 703 4441 
L 1819 4666 
L 2450 4666 
L 2450 531 
L 3481 531 
L 3481 0 
L 794 0 
L 794 531 
z
" transform="scale(0.015625)"/>
       </defs>
       <use xlink:href="#DejaVuSans-31"/>
       <use xlink:href="#DejaVuSans-2e" x="63.623047"/>
       <use xlink:href="#DejaVuSans-30" x="95.410156"/>
      </g>
     </g>
    </g>
    <g id="xtick_7">
     <g id="line2d_13">
      <path d="M 887.635518 503.8 
L 887.635518 10.8 
" clip-path="url(#pbd4987bac0)" style="fill: none; stroke: #b0b0b0; stroke-width: 0.8; stroke-linecap: square"/>
     </g>
     <g id="line2d_14">
      <g>
       <use xlink:href="#m6c85411828" x="887.635518" y="503.8" style="stroke: #000000; stroke-width: 0.8"/>
      </g>
     </g>
     <g id="text_7">
      <!-- 1.2 -->
      <g transform="translate(866.961455 530.555938)scale(0.26 -0.26)">
       <use xlink:href="#DejaVuSans-31"/>
       <use xlink:href="#DejaVuSans-2e" x="63.623047"/>
       <use xlink:href="#DejaVuSans-32" x="95.410156"/>
      </g>
     </g>
    </g>
    <g id="text_8">
     <!-- Frames -->
     <g transform="translate(462.202188 560.478906)scale(0.27 -0.27)">
      <defs>
       <path id="DejaVuSans-46" d="M 628 4666 
L 3309 4666 
L 3309 4134 
L 1259 4134 
L 1259 2759 
L 3109 2759 
L 3109 2228 
L 1259 2228 
L 1259 0 
L 628 0 
L 628 4666 
z
" transform="scale(0.015625)"/>
       <path id="DejaVuSans-72" d="M 2631 2963 
Q 2534 3019 2420 3045 
Q 2306 3072 2169 3072 
Q 1681 3072 1420 2755 
Q 1159 2438 1159 1844 
L 1159 0 
L 581 0 
L 581 3500 
L 1159 3500 
L 1159 2956 
Q 1341 3275 1631 3429 
Q 1922 3584 2338 3584 
Q 2397 3584 2469 3576 
Q 2541 3569 2628 3553 
L 2631 2963 
z
" transform="scale(0.015625)"/>
       <path id="DejaVuSans-61" d="M 2194 1759 
Q 1497 1759 1228 1600 
Q 959 1441 959 1056 
Q 959 750 1161 570 
Q 1363 391 1709 391 
Q 2188 391 2477 730 
Q 2766 1069 2766 1631 
L 2766 1759 
L 2194 1759 
z
M 3341 1997 
L 3341 0 
L 2766 0 
L 2766 531 
Q 2569 213 2275 61 
Q 1981 -91 1556 -91 
Q 1019 -91 701 211 
Q 384 513 384 1019 
Q 384 1609 779 1909 
Q 1175 2209 1959 2209 
L 2766 2209 
L 2766 2266 
Q 2766 2663 2505 2880 
Q 2244 3097 1772 3097 
Q 1472 3097 1187 3025 
Q 903 2953 641 2809 
L 641 3341 
Q 956 3463 1253 3523 
Q 1550 3584 1831 3584 
Q 2591 3584 2966 3190 
Q 3341 2797 3341 1997 
z
" transform="scale(0.015625)"/>
       <path id="DejaVuSans-6d" d="M 3328 2828 
Q 3544 3216 3844 3400 
Q 4144 3584 4550 3584 
Q 5097 3584 5394 3201 
Q 5691 2819 5691 2113 
L 5691 0 
L 5113 0 
L 5113 2094 
Q 5113 2597 4934 2840 
Q 4756 3084 4391 3084 
Q 3944 3084 3684 2787 
Q 3425 2491 3425 1978 
L 3425 0 
L 2847 0 
L 2847 2094 
Q 2847 2600 2669 2842 
Q 2491 3084 2119 3084 
Q 1678 3084 1418 2786 
Q 1159 2488 1159 1978 
L 1159 0 
L 581 0 
L 581 3500 
L 1159 3500 
L 1159 2956 
Q 1356 3278 1631 3431 
Q 1906 3584 2284 3584 
Q 2666 3584 2933 3390 
Q 3200 3197 3328 2828 
z
" transform="scale(0.015625)"/>
       <path id="DejaVuSans-65" d="M 3597 1894 
L 3597 1613 
L 953 1613 
Q 991 1019 1311 708 
Q 1631 397 2203 397 
Q 2534 397 2845 478 
Q 3156 559 3463 722 
L 3463 178 
Q 3153 47 2828 -22 
Q 2503 -91 2169 -91 
Q 1331 -91 842 396 
Q 353 884 353 1716 
Q 353 2575 817 3079 
Q 1281 3584 2069 3584 
Q 2775 3584 3186 3129 
Q 3597 2675 3597 1894 
z
M 3022 2063 
Q 3016 2534 2758 2815 
Q 2500 3097 2075 3097 
Q 1594 3097 1305 2825 
Q 1016 2553 972 2059 
L 3022 2063 
z
" transform="scale(0.015625)"/>
       <path id="DejaVuSans-73" d="M 2834 3397 
L 2834 2853 
Q 2591 2978 2328 3040 
Q 2066 3103 1784 3103 
Q 1356 3103 1142 2972 
Q 928 2841 928 2578 
Q 928 2378 1081 2264 
Q 1234 2150 1697 2047 
L 1894 2003 
Q 2506 1872 2764 1633 
Q 3022 1394 3022 966 
Q 3022 478 2636 193 
Q 2250 -91 1575 -91 
Q 1294 -91 989 -36 
Q 684 19 347 128 
L 347 722 
Q 666 556 975 473 
Q 1284 391 1588 391 
Q 1994 391 2212 530 
Q 2431 669 2431 922 
Q 2431 1156 2273 1281 
Q 2116 1406 1581 1522 
L 1381 1569 
Q 847 1681 609 1914 
Q 372 2147 372 2553 
Q 372 3047 722 3315 
Q 1072 3584 1716 3584 
Q 2034 3584 2315 3537 
Q 2597 3491 2834 3397 
z
" transform="scale(0.015625)"/>
      </defs>
      <use xlink:href="#DejaVuSans-46"/>
      <use xlink:href="#DejaVuSans-72" x="50.269531"/>
      <use xlink:href="#DejaVuSans-61" x="91.382812"/>
      <use xlink:href="#DejaVuSans-6d" x="152.662109"/>
      <use xlink:href="#DejaVuSans-65" x="250.074219"/>
      <use xlink:href="#DejaVuSans-73" x="311.597656"/>
     </g>
    </g>
    <g id="text_9">
     <!-- 1e7 -->
     <g transform="translate(876.116875 558.719062)scale(0.26 -0.26)">
      <defs>
       <path id="DejaVuSans-37" d="M 525 4666 
L 3525 4666 
L 3525 4397 
L 1831 0 
L 1172 0 
L 2766 4134 
L 525 4134 
L 525 4666 
z
" transform="scale(0.015625)"/>
      </defs>
      <use xlink:href="#DejaVuSans-31"/>
      <use xlink:href="#DejaVuSans-65" x="63.623047"/>
      <use xlink:href="#DejaVuSans-37" x="125.146484"/>
     </g>
    </g>
   </g>
   <g id="matplotlib.axis_2">
    <g id="ytick_1">
     <g id="line2d_15">
      <path d="M 97.4 481.29632 
L 925.2 481.29632 
" clip-path="url(#pbd4987bac0)" style="fill: none; stroke: #b0b0b0; stroke-width: 0.8; stroke-linecap: square"/>
     </g>
     <g id="line2d_16">
      <defs>
       <path id="m3cf696f245" d="M 0 0 
L -3.5 0 
" style="stroke: #000000; stroke-width: 0.8"/>
      </defs>
      <g>
       <use xlink:href="#m3cf696f245" x="97.4" y="481.29632" style="stroke: #000000; stroke-width: 0.8"/>
      </g>
     </g>
     <g id="text_10">
      <!-- 0 -->
      <g transform="translate(73.8575 491.174289)scale(0.26 -0.26)">
       <use xlink:href="#DejaVuSans-30"/>
      </g>
     </g>
    </g>
    <g id="ytick_2">
     <g id="line2d_17">
      <path d="M 97.4 386.707349 
L 925.2 386.707349 
" clip-path="url(#pbd4987bac0)" style="fill: none; stroke: #b0b0b0; stroke-width: 0.8; stroke-linecap: square"/>
     </g>
     <g id="line2d_18">
      <g>
       <use xlink:href="#m3cf696f245" x="97.4" y="386.707349" style="stroke: #000000; stroke-width: 0.8"/>
      </g>
     </g>
     <g id="text_11">
      <!-- 100 -->
      <g transform="translate(40.7725 396.585318)scale(0.26 -0.26)">
       <use xlink:href="#DejaVuSans-31"/>
       <use xlink:href="#DejaVuSans-30" x="63.623047"/>
       <use xlink:href="#DejaVuSans-30" x="127.246094"/>
      </g>
     </g>
    </g>
    <g id="ytick_3">
     <g id="line2d_19">
      <path d="M 97.4 292.118378 
L 925.2 292.118378 
" clip-path="url(#pbd4987bac0)" style="fill: none; stroke: #b0b0b0; stroke-width: 0.8; stroke-linecap: square"/>
     </g>
     <g id="line2d_20">
      <g>
       <use xlink:href="#m3cf696f245" x="97.4" y="292.118378" style="stroke: #000000; stroke-width: 0.8"/>
      </g>
     </g>
     <g id="text_12">
      <!-- 200 -->
      <g transform="translate(40.7725 301.996346)scale(0.26 -0.26)">
       <use xlink:href="#DejaVuSans-32"/>
       <use xlink:href="#DejaVuSans-30" x="63.623047"/>
       <use xlink:href="#DejaVuSans-30" x="127.246094"/>
      </g>
     </g>
    </g>
    <g id="ytick_4">
     <g id="line2d_21">
      <path d="M 97.4 197.529406 
L 925.2 197.529406 
" clip-path="url(#pbd4987bac0)" style="fill: none; stroke: #b0b0b0; stroke-width: 0.8; stroke-linecap: square"/>
     </g>
     <g id="line2d_22">
      <g>
       <use xlink:href="#m3cf696f245" x="97.4" y="197.529406" style="stroke: #000000; stroke-width: 0.8"/>
      </g>
     </g>
     <g id="text_13">
      <!-- 300 -->
      <g transform="translate(40.7725 207.407375)scale(0.26 -0.26)">
       <defs>
        <path id="DejaVuSans-33" d="M 2597 2516 
Q 3050 2419 3304 2112 
Q 3559 1806 3559 1356 
Q 3559 666 3084 287 
Q 2609 -91 1734 -91 
Q 1441 -91 1130 -33 
Q 819 25 488 141 
L 488 750 
Q 750 597 1062 519 
Q 1375 441 1716 441 
Q 2309 441 2620 675 
Q 2931 909 2931 1356 
Q 2931 1769 2642 2001 
Q 2353 2234 1838 2234 
L 1294 2234 
L 1294 2753 
L 1863 2753 
Q 2328 2753 2575 2939 
Q 2822 3125 2822 3475 
Q 2822 3834 2567 4026 
Q 2313 4219 1838 4219 
Q 1578 4219 1281 4162 
Q 984 4106 628 3988 
L 628 4550 
Q 988 4650 1302 4700 
Q 1616 4750 1894 4750 
Q 2613 4750 3031 4423 
Q 3450 4097 3450 3541 
Q 3450 3153 3228 2886 
Q 3006 2619 2597 2516 
z
" transform="scale(0.015625)"/>
       </defs>
       <use xlink:href="#DejaVuSans-33"/>
       <use xlink:href="#DejaVuSans-30" x="63.623047"/>
       <use xlink:href="#DejaVuSans-30" x="127.246094"/>
      </g>
     </g>
    </g>
    <g id="ytick_5">
     <g id="line2d_23">
      <path d="M 97.4 102.940435 
L 925.2 102.940435 
" clip-path="url(#pbd4987bac0)" style="fill: none; stroke: #b0b0b0; stroke-width: 0.8; stroke-linecap: square"/>
     </g>
     <g id="line2d_24">
      <g>
       <use xlink:href="#m3cf696f245" x="97.4" y="102.940435" style="stroke: #000000; stroke-width: 0.8"/>
      </g>
     </g>
     <g id="text_14">
      <!-- 400 -->
      <g transform="translate(40.7725 112.818404)scale(0.26 -0.26)">
       <use xlink:href="#DejaVuSans-34"/>
       <use xlink:href="#DejaVuSans-30" x="63.623047"/>
       <use xlink:href="#DejaVuSans-30" x="127.246094"/>
      </g>
     </g>
    </g>
    <g id="text_15">
     <!-- Mean episodic score -->
     <g transform="translate(31.157344 394.597109)rotate(-90)scale(0.27 -0.27)">
      <defs>
       <path id="DejaVuSans-4d" d="M 628 4666 
L 1569 4666 
L 2759 1491 
L 3956 4666 
L 4897 4666 
L 4897 0 
L 4281 0 
L 4281 4097 
L 3078 897 
L 2444 897 
L 1241 4097 
L 1241 0 
L 628 0 
L 628 4666 
z
" transform="scale(0.015625)"/>
       <path id="DejaVuSans-6e" d="M 3513 2113 
L 3513 0 
L 2938 0 
L 2938 2094 
Q 2938 2591 2744 2837 
Q 2550 3084 2163 3084 
Q 1697 3084 1428 2787 
Q 1159 2491 1159 1978 
L 1159 0 
L 581 0 
L 581 3500 
L 1159 3500 
L 1159 2956 
Q 1366 3272 1645 3428 
Q 1925 3584 2291 3584 
Q 2894 3584 3203 3211 
Q 3513 2838 3513 2113 
z
" transform="scale(0.015625)"/>
       <path id="DejaVuSans-20" transform="scale(0.015625)"/>
       <path id="DejaVuSans-70" d="M 1159 525 
L 1159 -1331 
L 581 -1331 
L 581 3500 
L 1159 3500 
L 1159 2969 
Q 1341 3281 1617 3432 
Q 1894 3584 2278 3584 
Q 2916 3584 3314 3078 
Q 3713 2572 3713 1747 
Q 3713 922 3314 415 
Q 2916 -91 2278 -91 
Q 1894 -91 1617 61 
Q 1341 213 1159 525 
z
M 3116 1747 
Q 3116 2381 2855 2742 
Q 2594 3103 2138 3103 
Q 1681 3103 1420 2742 
Q 1159 2381 1159 1747 
Q 1159 1113 1420 752 
Q 1681 391 2138 391 
Q 2594 391 2855 752 
Q 3116 1113 3116 1747 
z
" transform="scale(0.015625)"/>
       <path id="DejaVuSans-69" d="M 603 3500 
L 1178 3500 
L 1178 0 
L 603 0 
L 603 3500 
z
M 603 4863 
L 1178 4863 
L 1178 4134 
L 603 4134 
L 603 4863 
z
" transform="scale(0.015625)"/>
       <path id="DejaVuSans-6f" d="M 1959 3097 
Q 1497 3097 1228 2736 
Q 959 2375 959 1747 
Q 959 1119 1226 758 
Q 1494 397 1959 397 
Q 2419 397 2687 759 
Q 2956 1122 2956 1747 
Q 2956 2369 2687 2733 
Q 2419 3097 1959 3097 
z
M 1959 3584 
Q 2709 3584 3137 3096 
Q 3566 2609 3566 1747 
Q 3566 888 3137 398 
Q 2709 -91 1959 -91 
Q 1206 -91 779 398 
Q 353 888 353 1747 
Q 353 2609 779 3096 
Q 1206 3584 1959 3584 
z
" transform="scale(0.015625)"/>
       <path id="DejaVuSans-64" d="M 2906 2969 
L 2906 4863 
L 3481 4863 
L 3481 0 
L 2906 0 
L 2906 525 
Q 2725 213 2448 61 
Q 2172 -91 1784 -91 
Q 1150 -91 751 415 
Q 353 922 353 1747 
Q 353 2572 751 3078 
Q 1150 3584 1784 3584 
Q 2172 3584 2448 3432 
Q 2725 3281 2906 2969 
z
M 947 1747 
Q 947 1113 1208 752 
Q 1469 391 1925 391 
Q 2381 391 2643 752 
Q 2906 1113 2906 1747 
Q 2906 2381 2643 2742 
Q 2381 3103 1925 3103 
Q 1469 3103 1208 2742 
Q 947 2381 947 1747 
z
" transform="scale(0.015625)"/>
       <path id="DejaVuSans-63" d="M 3122 3366 
L 3122 2828 
Q 2878 2963 2633 3030 
Q 2388 3097 2138 3097 
Q 1578 3097 1268 2742 
Q 959 2388 959 1747 
Q 959 1106 1268 751 
Q 1578 397 2138 397 
Q 2388 397 2633 464 
Q 2878 531 3122 666 
L 3122 134 
Q 2881 22 2623 -34 
Q 2366 -91 2075 -91 
Q 1284 -91 818 406 
Q 353 903 353 1747 
Q 353 2603 823 3093 
Q 1294 3584 2113 3584 
Q 2378 3584 2631 3529 
Q 2884 3475 3122 3366 
z
" transform="scale(0.015625)"/>
      </defs>
      <use xlink:href="#DejaVuSans-4d"/>
      <use xlink:href="#DejaVuSans-65" x="86.279297"/>
      <use xlink:href="#DejaVuSans-61" x="147.802734"/>
      <use xlink:href="#DejaVuSans-6e" x="209.082031"/>
      <use xlink:href="#DejaVuSans-20" x="272.460938"/>
      <use xlink:href="#DejaVuSans-65" x="304.248047"/>
      <use xlink:href="#DejaVuSans-70" x="365.771484"/>
      <use xlink:href="#DejaVuSans-69" x="429.248047"/>
      <use xlink:href="#DejaVuSans-73" x="457.03125"/>
      <use xlink:href="#DejaVuSans-6f" x="509.130859"/>
      <use xlink:href="#DejaVuSans-64" x="570.3125"/>
      <use xlink:href="#DejaVuSans-69" x="633.789062"/>
      <use xlink:href="#DejaVuSans-63" x="661.572266"/>
      <use xlink:href="#DejaVuSans-20" x="716.552734"/>
      <use xlink:href="#DejaVuSans-73" x="748.339844"/>
      <use xlink:href="#DejaVuSans-63" x="800.439453"/>
      <use xlink:href="#DejaVuSans-6f" x="855.419922"/>
      <use xlink:href="#DejaVuSans-72" x="916.601562"/>
      <use xlink:href="#DejaVuSans-65" x="955.464844"/>
     </g>
    </g>
   </g>
   <g id="line2d_25">
    <path d="M 135.027273 481.29632 
L 138.808908 480.311371 
L 146.372179 479.844042 
L 150.153815 479.960904 
L 153.93545 479.816041 
L 165.280356 477.212034 
L 176.625263 472.862197 
L 180.406898 471.509837 
L 184.188534 470.025441 
L 187.970169 468.662084 
L 195.53344 466.625475 
L 199.315075 466.059536 
L 203.096711 464.587732 
L 206.878346 462.989301 
L 214.441617 460.30085 
L 218.223253 458.746972 
L 222.004888 457.988452 
L 225.786524 456.419502 
L 229.568159 454.213604 
L 233.349794 452.837479 
L 237.13143 452.047632 
L 240.913065 450.612004 
L 244.694701 448.999891 
L 248.476336 447.966807 
L 252.257972 447.299577 
L 256.039607 445.66686 
L 259.821243 443.718688 
L 263.602878 442.648833 
L 267.384513 441.054878 
L 271.166149 439.7932 
L 274.947784 438.038588 
L 278.72942 436.851339 
L 282.511055 433.471248 
L 286.292691 430.76267 
L 290.074326 428.99964 
L 293.855962 427.795958 
L 297.637597 422.936232 
L 301.419233 421.51606 
L 305.200868 420.519997 
L 308.982503 418.296539 
L 312.764139 414.641265 
L 316.545774 411.423307 
L 320.32741 406.091614 
L 324.109045 401.812816 
L 331.672316 395.900143 
L 335.453952 391.830959 
L 339.235587 387.95012 
L 343.017222 387.584425 
L 346.798858 383.130448 
L 350.580493 383.198492 
L 354.362129 380.041291 
L 358.143764 381.545799 
L 361.9254 379.6044 
L 365.707035 378.103298 
L 369.488671 371.848023 
L 373.270306 367.97113 
L 377.051942 365.399255 
L 380.833577 360.445725 
L 384.615212 354.643917 
L 388.396848 351.747231 
L 392.178483 341.529959 
L 395.960119 335.645436 
L 399.741754 323.115843 
L 407.305025 312.041196 
L 411.086661 308.775898 
L 414.868296 300.986074 
L 418.649931 292.062525 
L 422.431567 287.991232 
L 426.213202 280.03717 
L 429.994838 276.579291 
L 433.776473 273.279794 
L 441.339744 263.143291 
L 445.12138 259.783026 
L 448.903015 252.721564 
L 452.684651 245.081307 
L 456.466286 239.565279 
L 460.247921 234.245979 
L 464.029557 230.219045 
L 467.811192 221.090024 
L 471.592828 215.200614 
L 475.374463 205.68369 
L 479.156099 201.659301 
L 482.937734 195.950593 
L 486.71937 190.54874 
L 490.501005 187.91944 
L 494.28264 183.765439 
L 498.064276 179.834287 
L 501.845911 175.606911 
L 505.627547 173.543477 
L 513.190818 164.903298 
L 516.972453 161.372279 
L 520.754089 160.124629 
L 524.535724 158.268236 
L 528.31736 155.919442 
L 532.098995 153.21126 
L 535.88063 151.835765 
L 539.662266 145.773633 
L 543.443901 142.404078 
L 547.225537 142.668761 
L 551.007172 137.935913 
L 554.788808 133.652063 
L 558.570443 131.554226 
L 562.352079 127.794735 
L 566.133714 125.712404 
L 569.915349 124.862783 
L 573.696985 122.826279 
L 577.47862 122.40504 
L 581.260256 121.846444 
L 585.041891 118.647473 
L 588.823527 116.953172 
L 596.386798 115.118364 
L 600.168433 114.741155 
L 603.950069 112.211151 
L 611.513339 109.236113 
L 615.294975 108.782458 
L 622.858246 107.302936 
L 626.639881 106.013815 
L 630.421517 106.124165 
L 634.203152 104.017502 
L 637.984788 103.741381 
L 641.766423 101.623061 
L 645.548058 100.018444 
L 649.329694 99.105595 
L 653.111329 98.066114 
L 656.892965 97.16952 
L 660.6746 95.306803 
L 664.456236 94.74004 
L 668.237871 92.369857 
L 672.019507 92.016116 
L 675.801142 92.497239 
L 679.582778 91.106335 
L 683.364413 90.270707 
L 687.146048 88.831082 
L 690.927684 87.644236 
L 694.709319 86.041783 
L 698.490955 84.973017 
L 702.27259 85.047095 
L 706.054226 84.30362 
L 709.835861 83.887791 
L 713.617497 81.666013 
L 717.399132 81.039397 
L 721.180767 80.071122 
L 724.962403 80.851406 
L 728.744038 78.371609 
L 732.525674 78.059152 
L 736.307309 78.307046 
L 740.088945 77.365424 
L 743.87058 78.246114 
L 747.652216 76.271962 
L 751.433851 75.590259 
L 755.215487 73.194091 
L 758.997122 70.635683 
L 762.778757 70.573065 
L 766.560393 71.877343 
L 770.342028 69.41972 
L 774.123664 68.50474 
L 777.905299 69.214092 
L 781.686935 67.179844 
L 785.46857 67.06997 
L 793.031841 64.828253 
L 796.813476 64.228207 
L 800.595112 63.139845 
L 804.376747 60.859872 
L 808.158383 60.741753 
L 811.940018 59.01618 
L 815.721654 56.333248 
L 819.503289 56.838542 
L 823.284925 56.000953 
L 827.06656 55.346683 
L 830.848196 55.161981 
L 834.629831 51.40577 
L 838.411466 51.130762 
L 842.193102 53.086643 
L 845.974737 53.688766 
L 853.538008 51.294743 
L 857.319644 49.010123 
L 861.101279 46.88181 
L 864.882915 46.488152 
L 868.66455 45.879199 
L 872.446185 44.399939 
L 876.227821 43.573312 
L 880.009456 44.583076 
L 883.791092 46.256189 
L 887.572727 46.084896 
L 887.572727 46.084896 
" clip-path="url(#pbd4987bac0)" style="fill: none; stroke: #1f77b4; stroke-width: 1.5; stroke-linecap: square"/>
   </g>
   <g id="line2d_26">
    <path d="M 135.027273 481.29632 
L 138.808277 480.371345 
L 142.589282 479.950143 
L 146.370286 479.79698 
L 150.15129 479.976777 
L 153.932295 479.612893 
L 161.494303 477.986766 
L 165.275308 476.752755 
L 169.056312 474.790572 
L 172.837317 473.185756 
L 180.399325 470.548785 
L 184.18033 469.387099 
L 187.961334 468.348401 
L 191.742339 467.463386 
L 195.523343 466.162831 
L 203.085352 464.021353 
L 206.866356 462.837337 
L 210.64736 461.812501 
L 214.428365 460.951394 
L 221.990374 458.574825 
L 225.771378 457.168734 
L 229.552382 454.895842 
L 237.114391 451.642841 
L 240.895396 450.229737 
L 244.6764 448.067287 
L 248.457404 446.88389 
L 252.238409 446.307801 
L 256.019413 445.330415 
L 259.800418 442.977291 
L 263.581422 442.321339 
L 271.143431 439.523536 
L 274.924435 438.426622 
L 278.705439 433.736154 
L 282.486444 430.732021 
L 286.267448 425.638175 
L 290.048453 421.468086 
L 293.829457 416.552649 
L 297.610461 414.79955 
L 301.391466 410.676407 
L 305.17247 411.062278 
L 308.953475 405.890951 
L 312.734479 402.975826 
L 316.515483 401.940395 
L 320.296488 405.957362 
L 324.077492 401.496284 
L 331.639501 397.109678 
L 335.420505 392.62027 
L 339.20151 390.396977 
L 346.763518 382.018793 
L 350.544523 375.802447 
L 354.325527 369.360871 
L 358.106532 366.08772 
L 361.887536 361.549956 
L 365.66854 356.733583 
L 369.449545 350.388734 
L 373.230549 345.911117 
L 377.011554 339.338401 
L 380.792558 335.293487 
L 384.573562 332.631439 
L 388.354567 331.424819 
L 392.135571 327.770886 
L 399.69758 315.47289 
L 403.478584 312.984388 
L 407.259589 310.94531 
L 411.040593 308.072695 
L 414.821597 305.345839 
L 418.602602 302.412165 
L 422.383606 296.87765 
L 426.164611 288.820693 
L 429.945615 282.362081 
L 433.726619 278.197253 
L 437.507624 273.343836 
L 441.288628 271.115654 
L 445.069633 261.772286 
L 448.850637 257.227542 
L 452.631641 252.881808 
L 456.412646 242.604275 
L 460.19365 240.589793 
L 463.974655 237.761012 
L 467.755659 233.731593 
L 471.536663 231.491257 
L 475.317668 230.075895 
L 479.098672 226.051608 
L 482.879676 223.895912 
L 486.660681 218.819645 
L 490.441685 215.01568 
L 494.22269 208.814023 
L 498.003694 206.644091 
L 501.784698 203.801281 
L 505.565703 201.86667 
L 509.346707 196.201242 
L 513.127712 195.211776 
L 516.908716 191.274647 
L 520.68972 188.646774 
L 524.470725 184.735579 
L 528.251729 185.567248 
L 532.032734 180.248007 
L 535.813738 178.595068 
L 539.594742 177.218283 
L 543.375747 174.689563 
L 547.156751 170.860692 
L 550.937755 167.624332 
L 554.71876 164.547533 
L 558.499764 163.03322 
L 562.280769 159.945951 
L 566.061773 157.447276 
L 569.842777 153.684445 
L 573.623782 151.518254 
L 577.404786 148.313238 
L 581.185791 147.651175 
L 584.966795 146.438903 
L 588.747799 144.941061 
L 592.528804 140.456672 
L 596.309808 138.003107 
L 600.090813 136.949793 
L 603.871817 137.842679 
L 607.652821 136.55463 
L 611.433826 137.176266 
L 615.21483 134.987093 
L 618.995834 133.441908 
L 622.776839 132.102416 
L 626.557843 129.720376 
L 630.338848 129.292146 
L 634.119852 130.383654 
L 637.900856 126.902439 
L 645.462865 123.586792 
L 649.24387 122.113113 
L 653.024874 121.20497 
L 660.586883 116.644379 
L 664.367887 111.815214 
L 668.148892 108.542553 
L 671.929896 105.986422 
L 675.7109 104.437718 
L 679.491905 102.29983 
L 683.272909 101.36217 
L 687.053913 102.354386 
L 690.834918 101.964152 
L 694.615922 99.88585 
L 698.396927 98.755203 
L 702.177931 98.821036 
L 705.958935 96.830807 
L 709.73994 96.543716 
L 713.520944 94.356152 
L 717.301949 94.002669 
L 721.082953 93.388777 
L 724.863957 94.691459 
L 728.644962 94.483773 
L 732.425966 93.752521 
L 736.206971 95.60522 
L 739.987975 95.655617 
L 743.768979 96.696095 
L 747.549984 98.720269 
L 751.330988 97.772294 
L 755.111992 95.349333 
L 758.892997 94.130753 
L 762.674001 95.194243 
L 766.455006 94.868194 
L 774.017014 93.250748 
L 777.798019 93.880298 
L 781.579023 93.585771 
L 785.360028 92.94378 
L 789.141032 90.008539 
L 792.922036 89.968199 
L 796.703041 89.397168 
L 800.484045 90.704222 
L 804.26505 89.206843 
L 808.046054 87.324897 
L 811.827058 85.888786 
L 815.608063 87.079697 
L 819.389067 87.736127 
L 823.170071 87.04412 
L 826.951076 86.755986 
L 830.73208 86.626371 
L 834.513085 84.364563 
L 838.294089 84.383618 
L 842.075093 83.367333 
L 845.856098 82.910805 
L 849.637102 81.374783 
L 853.418107 80.8526 
L 857.199111 82.240426 
L 860.980115 79.460158 
L 864.76112 78.697632 
L 868.542124 78.167452 
L 872.323128 78.617507 
L 876.104133 76.994303 
L 879.885137 78.09278 
L 887.447146 78.169475 
L 887.447146 78.169475 
" clip-path="url(#pbd4987bac0)" style="fill: none; stroke: #ff7f0e; stroke-width: 1.5; stroke-linecap: square"/>
   </g>
   <g id="line2d_27">
    <path d="M 135.027273 481.201731 
L 138.808908 480.159613 
L 142.590544 479.799609 
L 146.372179 480.064772 
L 153.93545 479.654013 
L 157.717085 479.210838 
L 161.498721 477.931702 
L 172.843627 473.273594 
L 176.625263 471.941888 
L 180.406898 470.470004 
L 184.188534 469.262671 
L 187.970169 468.18849 
L 195.53344 466.175634 
L 199.315075 464.831193 
L 206.878346 461.851732 
L 210.659982 460.562133 
L 222.004888 454.953121 
L 225.786524 453.356096 
L 229.568159 451.450253 
L 233.349794 449.942081 
L 237.13143 448.288127 
L 240.913065 446.772858 
L 244.694701 444.242785 
L 248.476336 442.65541 
L 252.257972 440.506015 
L 256.039607 438.101989 
L 259.821243 435.83706 
L 263.602878 432.717297 
L 267.384513 430.393624 
L 271.166149 429.421817 
L 274.947784 426.774457 
L 278.72942 420.649158 
L 282.511055 417.435112 
L 286.292691 413.419578 
L 290.074326 407.745857 
L 293.855962 406.736136 
L 297.637597 402.497393 
L 301.419233 395.519004 
L 305.200868 393.093919 
L 308.982503 391.970845 
L 312.764139 391.115521 
L 316.545774 387.056953 
L 320.32741 386.056002 
L 327.890681 377.48595 
L 331.672316 376.485343 
L 335.453952 375.893165 
L 339.235587 371.091833 
L 343.017222 362.120735 
L 346.798858 359.221219 
L 350.580493 355.602532 
L 354.362129 349.032421 
L 358.143764 340.521917 
L 361.9254 340.012867 
L 365.707035 336.059184 
L 369.488671 326.977757 
L 373.270306 323.042527 
L 377.051942 316.919859 
L 380.833577 312.766787 
L 384.615212 303.766195 
L 388.396848 296.433411 
L 392.178483 292.745571 
L 395.960119 292.320497 
L 403.52339 273.721263 
L 407.305025 265.067551 
L 411.086661 258.754843 
L 414.868296 253.859417 
L 418.649931 250.946963 
L 422.431567 242.085655 
L 426.213202 238.042067 
L 429.994838 236.290656 
L 433.776473 228.778601 
L 437.558109 220.801056 
L 445.12138 205.649337 
L 448.903015 204.860809 
L 452.684651 199.054369 
L 456.466286 199.085783 
L 467.811192 179.19507 
L 471.592828 174.413636 
L 475.374463 171.22595 
L 479.156099 167.26067 
L 482.937734 164.759151 
L 486.71937 163.174475 
L 490.501005 160.289518 
L 494.28264 157.877019 
L 498.064276 155.211152 
L 501.845911 153.774734 
L 505.627547 152.895872 
L 509.409182 152.216543 
L 513.190818 150.285829 
L 516.972453 146.54585 
L 520.754089 143.47602 
L 524.535724 143.000504 
L 528.31736 142.718239 
L 532.098995 140.83626 
L 535.88063 140.821372 
L 539.662266 137.359374 
L 543.443901 134.993876 
L 547.225537 133.654243 
L 551.007172 133.706976 
L 554.788808 131.853897 
L 558.570443 132.020825 
L 562.352079 128.674405 
L 566.133714 125.635469 
L 569.915349 123.901569 
L 573.696985 123.275315 
L 577.47862 121.008561 
L 581.260256 120.903809 
L 585.041891 119.437711 
L 588.823527 118.307265 
L 592.605162 117.503866 
L 596.386798 116.318224 
L 600.168433 115.432456 
L 603.950069 114.714875 
L 607.731704 112.597333 
L 611.513339 111.844573 
L 615.294975 108.484489 
L 619.07661 107.390316 
L 622.858246 105.123465 
L 626.639881 104.550005 
L 630.421517 101.895259 
L 634.203152 101.992409 
L 637.984788 101.858511 
L 641.766423 104.518406 
L 645.548058 104.089158 
L 649.329694 103.848633 
L 653.111329 101.989538 
L 656.892965 102.24371 
L 660.6746 100.932184 
L 664.456236 100.086629 
L 668.237871 100.013411 
L 672.019507 98.930075 
L 675.801142 100.133817 
L 679.582778 99.362091 
L 683.364413 100.821645 
L 687.146048 101.130144 
L 690.927684 99.806095 
L 694.709319 97.641615 
L 698.490955 97.61872 
L 702.27259 98.116095 
L 706.054226 97.716035 
L 709.835861 94.072233 
L 717.399132 92.356108 
L 724.962403 93.537616 
L 728.744038 93.936203 
L 732.525674 91.623053 
L 736.307309 90.262356 
L 740.088945 88.248694 
L 743.87058 87.84031 
L 747.652216 86.267796 
L 751.433851 86.202444 
L 755.215487 83.34907 
L 758.997122 81.884504 
L 762.778757 81.305442 
L 766.560393 77.585398 
L 774.123664 76.44464 
L 777.905299 74.859294 
L 781.686935 72.355019 
L 789.250206 72.932685 
L 793.031841 73.092928 
L 796.813476 71.150317 
L 800.595112 70.587594 
L 804.376747 68.846758 
L 808.158383 66.064119 
L 811.940018 66.761773 
L 815.721654 65.195947 
L 819.503289 65.976377 
L 823.284925 66.980787 
L 827.06656 66.66107 
L 830.848196 64.777757 
L 834.629831 64.563293 
L 838.411466 64.766103 
L 842.193102 63.845149 
L 845.974737 62.608997 
L 849.756373 63.121133 
L 853.538008 64.047827 
L 857.319644 63.137917 
L 861.101279 61.772977 
L 864.882915 61.82412 
L 868.66455 60.539895 
L 872.446185 59.605814 
L 876.227821 55.981999 
L 880.009456 53.191562 
L 883.791092 50.775309 
L 887.572727 49.904399 
L 887.572727 49.904399 
" clip-path="url(#pbd4987bac0)" style="fill: none; stroke: #2ca02c; stroke-width: 1.5; stroke-linecap: square"/>
   </g>
   <g id="patch_3">
    <path d="M 97.4 503.8 
L 97.4 10.8 
" style="fill: none; stroke: #000000; stroke-width: 0.8; stroke-linejoin: miter; stroke-linecap: square"/>
   </g>
   <g id="patch_4">
    <path d="M 925.2 503.8 
L 925.2 10.8 
" style="fill: none; stroke: #000000; stroke-width: 0.8; stroke-linejoin: miter; stroke-linecap: square"/>
   </g>
   <g id="patch_5">
    <path d="M 97.4 503.8 
L 925.2 503.8 
" style="fill: none; stroke: #000000; stroke-width: 0.8; stroke-linejoin: miter; stroke-linecap: square"/>
   </g>
   <g id="patch_6">
    <path d="M 97.4 10.8 
L 925.2 10.8 
" style="fill: none; stroke: #000000; stroke-width: 0.8; stroke-linejoin: miter; stroke-linecap: square"/>
   </g>
   <g id="legend_1">
    <g id="patch_7">
     <path d="M 114.9 140.885938 
L 385.841406 140.885938 
Q 390.841406 140.885938 390.841406 135.885938 
L 390.841406 28.3 
Q 390.841406 23.3 385.841406 23.3 
L 114.9 23.3 
Q 109.9 23.3 109.9 28.3 
L 109.9 135.885938 
Q 109.9 140.885938 114.9 140.885938 
z
" style="fill: #ffffff; opacity: 0.8; stroke: #cccccc; stroke-linejoin: miter"/>
    </g>
    <g id="line2d_28">
     <path d="M 119.9 43.546094 
L 144.9 43.546094 
L 169.9 43.546094 
" style="fill: none; stroke: #1f77b4; stroke-width: 1.5; stroke-linecap: square"/>
    </g>
    <g id="text_16">
     <!-- Normal replay -->
     <g transform="translate(189.9 52.296094)scale(0.25 -0.25)">
      <defs>
       <path id="DejaVuSans-4e" d="M 628 4666 
L 1478 4666 
L 3547 763 
L 3547 4666 
L 4159 4666 
L 4159 0 
L 3309 0 
L 1241 3903 
L 1241 0 
L 628 0 
L 628 4666 
z
" transform="scale(0.015625)"/>
       <path id="DejaVuSans-6c" d="M 603 4863 
L 1178 4863 
L 1178 0 
L 603 0 
L 603 4863 
z
" transform="scale(0.015625)"/>
       <path id="DejaVuSans-79" d="M 2059 -325 
Q 1816 -950 1584 -1140 
Q 1353 -1331 966 -1331 
L 506 -1331 
L 506 -850 
L 844 -850 
Q 1081 -850 1212 -737 
Q 1344 -625 1503 -206 
L 1606 56 
L 191 3500 
L 800 3500 
L 1894 763 
L 2988 3500 
L 3597 3500 
L 2059 -325 
z
" transform="scale(0.015625)"/>
      </defs>
      <use xlink:href="#DejaVuSans-4e"/>
      <use xlink:href="#DejaVuSans-6f" x="74.804688"/>
      <use xlink:href="#DejaVuSans-72" x="135.986328"/>
      <use xlink:href="#DejaVuSans-6d" x="175.349609"/>
      <use xlink:href="#DejaVuSans-61" x="272.761719"/>
      <use xlink:href="#DejaVuSans-6c" x="334.041016"/>
      <use xlink:href="#DejaVuSans-20" x="361.824219"/>
      <use xlink:href="#DejaVuSans-72" x="393.611328"/>
      <use xlink:href="#DejaVuSans-65" x="432.474609"/>
      <use xlink:href="#DejaVuSans-70" x="493.998047"/>
      <use xlink:href="#DejaVuSans-6c" x="557.474609"/>
      <use xlink:href="#DejaVuSans-61" x="585.257812"/>
      <use xlink:href="#DejaVuSans-79" x="646.537109"/>
     </g>
    </g>
    <g id="line2d_29">
     <path d="M 119.9 80.241406 
L 144.9 80.241406 
L 169.9 80.241406 
" style="fill: none; stroke: #ff7f0e; stroke-width: 1.5; stroke-linecap: square"/>
    </g>
    <g id="text_17">
     <!-- Elite strategy 1 -->
     <g transform="translate(189.9 88.991406)scale(0.25 -0.25)">
      <defs>
       <path id="DejaVuSans-45" d="M 628 4666 
L 3578 4666 
L 3578 4134 
L 1259 4134 
L 1259 2753 
L 3481 2753 
L 3481 2222 
L 1259 2222 
L 1259 531 
L 3634 531 
L 3634 0 
L 628 0 
L 628 4666 
z
" transform="scale(0.015625)"/>
       <path id="DejaVuSans-74" d="M 1172 4494 
L 1172 3500 
L 2356 3500 
L 2356 3053 
L 1172 3053 
L 1172 1153 
Q 1172 725 1289 603 
Q 1406 481 1766 481 
L 2356 481 
L 2356 0 
L 1766 0 
Q 1100 0 847 248 
Q 594 497 594 1153 
L 594 3053 
L 172 3053 
L 172 3500 
L 594 3500 
L 594 4494 
L 1172 4494 
z
" transform="scale(0.015625)"/>
       <path id="DejaVuSans-67" d="M 2906 1791 
Q 2906 2416 2648 2759 
Q 2391 3103 1925 3103 
Q 1463 3103 1205 2759 
Q 947 2416 947 1791 
Q 947 1169 1205 825 
Q 1463 481 1925 481 
Q 2391 481 2648 825 
Q 2906 1169 2906 1791 
z
M 3481 434 
Q 3481 -459 3084 -895 
Q 2688 -1331 1869 -1331 
Q 1566 -1331 1297 -1286 
Q 1028 -1241 775 -1147 
L 775 -588 
Q 1028 -725 1275 -790 
Q 1522 -856 1778 -856 
Q 2344 -856 2625 -561 
Q 2906 -266 2906 331 
L 2906 616 
Q 2728 306 2450 153 
Q 2172 0 1784 0 
Q 1141 0 747 490 
Q 353 981 353 1791 
Q 353 2603 747 3093 
Q 1141 3584 1784 3584 
Q 2172 3584 2450 3431 
Q 2728 3278 2906 2969 
L 2906 3500 
L 3481 3500 
L 3481 434 
z
" transform="scale(0.015625)"/>
      </defs>
      <use xlink:href="#DejaVuSans-45"/>
      <use xlink:href="#DejaVuSans-6c" x="63.183594"/>
      <use xlink:href="#DejaVuSans-69" x="90.966797"/>
      <use xlink:href="#DejaVuSans-74" x="118.75"/>
      <use xlink:href="#DejaVuSans-65" x="157.958984"/>
      <use xlink:href="#DejaVuSans-20" x="219.482422"/>
      <use xlink:href="#DejaVuSans-73" x="251.269531"/>
      <use xlink:href="#DejaVuSans-74" x="303.369141"/>
      <use xlink:href="#DejaVuSans-72" x="342.578125"/>
      <use xlink:href="#DejaVuSans-61" x="383.691406"/>
      <use xlink:href="#DejaVuSans-74" x="444.970703"/>
      <use xlink:href="#DejaVuSans-65" x="484.179688"/>
      <use xlink:href="#DejaVuSans-67" x="545.703125"/>
      <use xlink:href="#DejaVuSans-79" x="609.179688"/>
      <use xlink:href="#DejaVuSans-20" x="668.359375"/>
      <use xlink:href="#DejaVuSans-31" x="700.146484"/>
     </g>
    </g>
    <g id="line2d_30">
     <path d="M 119.9 116.936719 
L 144.9 116.936719 
L 169.9 116.936719 
" style="fill: none; stroke: #2ca02c; stroke-width: 1.5; stroke-linecap: square"/>
    </g>
    <g id="text_18">
     <!-- Elite strategy 3 -->
     <g transform="translate(189.9 125.686719)scale(0.25 -0.25)">
      <use xlink:href="#DejaVuSans-45"/>
      <use xlink:href="#DejaVuSans-6c" x="63.183594"/>
      <use xlink:href="#DejaVuSans-69" x="90.966797"/>
      <use xlink:href="#DejaVuSans-74" x="118.75"/>
      <use xlink:href="#DejaVuSans-65" x="157.958984"/>
      <use xlink:href="#DejaVuSans-20" x="219.482422"/>
      <use xlink:href="#DejaVuSans-73" x="251.269531"/>
      <use xlink:href="#DejaVuSans-74" x="303.369141"/>
      <use xlink:href="#DejaVuSans-72" x="342.578125"/>
      <use xlink:href="#DejaVuSans-61" x="383.691406"/>
      <use xlink:href="#DejaVuSans-74" x="444.970703"/>
      <use xlink:href="#DejaVuSans-65" x="484.179688"/>
      <use xlink:href="#DejaVuSans-67" x="545.703125"/>
      <use xlink:href="#DejaVuSans-79" x="609.179688"/>
      <use xlink:href="#DejaVuSans-20" x="668.359375"/>
      <use xlink:href="#DejaVuSans-33" x="700.146484"/>
     </g>
    </g>
   </g>
  </g>
 </g>
 <defs>
  <clipPath id="pbd4987bac0">
   <rect x="97.4" y="10.8" width="827.8" height="493"/>
  </clipPath>
 </defs>
</svg>
