<?xml version="1.0" encoding="utf-8" standalone="no"?>
<!DOCTYPE svg PUBLIC "-//W3C//DTD SVG 1.1//EN"
  "http://www.w3.org/Graphics/SVG/1.1/DTD/svg11.dtd">
<svg xmlns:xlink="http://www.w3.org/1999/xlink" width="936pt" height="576pt" viewBox="0 0 936 576" xmlns="http://www.w3.org/2000/svg" version="1.1">
 <metadata>
  <rdf:RDF xmlns:dc="http://purl.org/dc/elements/1.1/" xmlns:cc="http://creativecommons.org/ns#" xmlns:rdf="http://www.w3.org/1999/02/22-rdf-syntax-ns#">
   <cc:Work>
    <dc:type rdf:resource="http://purl.org/dc/dcmitype/StillImage"/>
    <dc:date>2022-03-09T09:55:45.366936</dc:date>
    <dc:format>image/svg+xml</dc:format>
    <dc:creator>
     <cc:Agent>
      <dc:title>Matplotlib v3.5.0, https://matplotlib.org/</dc:title>
     </cc:Agent>
    </dc:creator>
   </cc:Work>
  </rdf:RDF>
 </metadata>
 <defs>
  <style type="text/css">*{stroke-linejoin: round; stroke-linecap: butt}</style>
 </defs>
 <g id="figure_1">
  <g id="patch_1">
   <path d="M 0 576 
L 936 576 
L 936 0 
L 0 0 
L 0 576 
z
" style="fill: none"/>
  </g>
  <g id="axes_1">
   <g id="patch_2">
    <path d="M 113.96 503.8 
L 925.2 503.8 
L 925.2 10.8 
L 113.96 10.8 
L 113.96 503.8 
z
" style="fill: none"/>
   </g>
   <g id="PolyCollection_1">
    <path d="M 151.266043 476.82147 
L 151.266043 481.390909 
L 154.969859 464.906885 
L 158.673675 463.260239 
L 162.377491 462.829331 
L 166.081308 458.452955 
L 169.785124 453.907124 
L 173.48894 443.575976 
L 177.192756 433.733127 
L 180.896572 423.89967 
L 184.600388 412.962861 
L 188.304204 400.338722 
L 192.008021 391.585449 
L 195.711837 386.010871 
L 199.415653 381.763146 
L 203.119469 379.910776 
L 206.823285 378.25782 
L 210.527101 377.123425 
L 214.230917 378.588856 
L 217.934733 376.940792 
L 221.63855 373.920127 
L 225.342366 374.294843 
L 229.046182 374.056884 
L 232.749998 371.407276 
L 236.453814 372.348747 
L 240.15763 372.159962 
L 243.861446 373.832175 
L 247.565263 375.116319 
L 251.269079 374.503257 
L 254.972895 375.65691 
L 258.676711 374.978541 
L 262.380527 373.59068 
L 266.084343 370.725362 
L 269.788159 369.516658 
L 273.491976 369.649121 
L 277.195792 369.100952 
L 280.899608 368.298278 
L 284.603424 366.663474 
L 288.30724 365.722335 
L 292.011056 365.803134 
L 295.714872 365.209827 
L 299.418689 363.986096 
L 303.122505 363.271901 
L 306.826321 363.524592 
L 310.530137 363.255975 
L 314.233953 361.985833 
L 317.937769 362.437762 
L 321.641585 361.440352 
L 325.345401 363.058789 
L 329.049218 362.486917 
L 332.753034 362.82704 
L 336.45685 359.987177 
L 340.160666 361.421002 
L 343.864482 361.388227 
L 347.568298 359.647086 
L 351.272114 358.405016 
L 354.975931 358.916021 
L 358.679747 357.230747 
L 362.383563 358.480577 
L 366.087379 358.791492 
L 369.791195 356.978911 
L 373.495011 358.652514 
L 377.198827 359.653091 
L 380.902644 359.508597 
L 384.60646 360.241176 
L 388.310276 357.348809 
L 392.014092 358.757683 
L 395.717908 359.021884 
L 399.421724 358.403061 
L 403.12554 358.796984 
L 406.829357 356.980916 
L 410.533173 356.500446 
L 414.236989 355.739257 
L 417.940805 354.468635 
L 421.644621 353.823856 
L 425.348437 353.889962 
L 429.052253 351.122835 
L 432.75607 350.557373 
L 436.459886 350.277037 
L 440.163702 350.095439 
L 443.867518 351.405133 
L 447.571334 351.511406 
L 451.27515 349.036476 
L 454.978966 348.21371 
L 458.682782 346.424021 
L 462.386599 346.859936 
L 466.090415 345.766994 
L 469.794231 343.763403 
L 473.498047 343.549931 
L 477.201863 342.179484 
L 480.905679 342.213054 
L 484.609495 340.168262 
L 488.313312 340.564328 
L 492.017128 339.420597 
L 495.720944 338.415014 
L 499.42476 337.324464 
L 503.128576 336.088923 
L 506.832392 335.557749 
L 510.536208 334.713304 
L 514.240025 332.170949 
L 517.943841 327.690623 
L 521.647657 326.887227 
L 525.351473 326.015463 
L 529.055289 329.33821 
L 532.759105 328.242009 
L 536.462921 325.261238 
L 540.166738 324.081688 
L 543.870554 323.335569 
L 547.57437 323.274361 
L 551.278186 323.909205 
L 554.982002 323.720188 
L 558.685818 321.859909 
L 562.389634 322.941448 
L 566.09345 324.165654 
L 569.797267 321.355607 
L 573.501083 322.019874 
L 577.204899 320.14995 
L 580.908715 317.584538 
L 584.612531 315.485319 
L 588.316347 311.533354 
L 592.020163 309.877556 
L 595.72398 305.886994 
L 599.427796 307.176229 
L 603.131612 305.516145 
L 606.835428 305.555903 
L 610.539244 305.220126 
L 614.24306 307.52584 
L 617.946876 304.872844 
L 621.650693 304.49588 
L 625.354509 304.602807 
L 629.058325 302.866097 
L 632.762141 303.52173 
L 636.465957 304.442853 
L 640.169773 301.66951 
L 643.873589 298.07385 
L 647.577406 296.84886 
L 651.281222 297.599086 
L 654.985038 293.946563 
L 658.688854 296.13087 
L 662.39267 294.67221 
L 666.096486 288.2345 
L 669.800302 286.067479 
L 673.504119 288.402009 
L 677.207935 288.269401 
L 680.911751 284.290404 
L 684.615567 285.30932 
L 688.319383 282.531413 
L 692.023199 278.516347 
L 695.727015 276.525961 
L 699.430831 279.826587 
L 703.134648 280.441239 
L 706.838464 276.210998 
L 710.54228 276.3514 
L 714.246096 275.572693 
L 717.949912 271.251099 
L 721.653728 268.454443 
L 725.357544 267.72276 
L 729.061361 266.821331 
L 732.765177 263.351983 
L 736.468993 261.36074 
L 740.172809 261.413007 
L 743.876625 260.889207 
L 747.580441 259.701785 
L 751.284257 258.925278 
L 754.988074 258.520731 
L 758.69189 256.672467 
L 762.395706 259.271472 
L 766.099522 258.646614 
L 769.803338 258.38521 
L 773.507154 259.097368 
L 777.21097 257.142816 
L 780.914787 258.259282 
L 784.618603 256.286011 
L 788.322419 254.56487 
L 792.026235 251.521118 
L 795.730051 249.35753 
L 799.433867 248.898913 
L 803.137683 246.260801 
L 806.841499 243.610994 
L 810.545316 243.247806 
L 814.249132 242.075179 
L 817.952948 239.428992 
L 821.656764 239.198625 
L 825.36058 239.226735 
L 829.064396 238.898532 
L 832.768212 236.866056 
L 836.472029 234.284112 
L 840.175845 233.25256 
L 843.879661 232.226801 
L 847.583477 229.25366 
L 851.287293 226.519772 
L 854.991109 230.724651 
L 858.694925 227.431768 
L 862.398742 225.277516 
L 866.102558 229.054396 
L 869.806374 227.458702 
L 873.51019 227.990071 
L 877.214006 226.197243 
L 880.917822 227.226975 
L 884.621638 226.567014 
L 888.325455 226.159611 
L 888.325455 195.989064 
L 888.325455 195.989064 
L 884.621638 196.689699 
L 880.917822 196.510126 
L 877.214006 201.319713 
L 873.51019 203.025058 
L 869.806374 204.036632 
L 866.102558 204.883733 
L 862.398742 208.342464 
L 858.694925 206.940048 
L 854.991109 205.087419 
L 851.287293 206.287509 
L 847.583477 207.807964 
L 843.879661 206.534102 
L 840.175845 209.098375 
L 836.472029 205.068803 
L 832.768212 205.169536 
L 829.064396 201.739509 
L 825.36058 202.907972 
L 821.656764 205.900278 
L 817.952948 208.000512 
L 814.249132 211.418845 
L 810.545316 212.798197 
L 806.841499 212.94707 
L 803.137683 214.492773 
L 799.433867 216.141274 
L 795.730051 217.980466 
L 792.026235 222.053987 
L 788.322419 220.931226 
L 784.618603 221.278081 
L 780.914787 219.739177 
L 777.21097 217.777933 
L 773.507154 217.051342 
L 769.803338 220.929871 
L 766.099522 222.556341 
L 762.395706 221.680187 
L 758.69189 220.555749 
L 754.988074 219.468987 
L 751.284257 224.590153 
L 747.580441 225.186939 
L 743.876625 231.195579 
L 740.172809 235.201923 
L 736.468993 234.627126 
L 732.765177 232.35883 
L 729.061361 234.29729 
L 725.357544 238.011106 
L 721.653728 241.176366 
L 717.949912 240.382228 
L 714.246096 241.85206 
L 710.54228 240.278565 
L 706.838464 241.212581 
L 703.134648 242.339568 
L 699.430831 247.669478 
L 695.727015 248.751249 
L 692.023199 249.144756 
L 688.319383 253.634135 
L 684.615567 253.492222 
L 680.911751 255.274213 
L 677.207935 255.065259 
L 673.504119 258.804605 
L 669.800302 259.330456 
L 666.096486 263.434542 
L 662.39267 262.956613 
L 658.688854 268.859256 
L 654.985038 263.223904 
L 651.281222 265.013543 
L 647.577406 268.397899 
L 643.873589 271.78614 
L 640.169773 273.303576 
L 636.465957 270.430769 
L 632.762141 272.044059 
L 629.058325 271.777881 
L 625.354509 274.596743 
L 621.650693 280.981681 
L 617.946876 279.446156 
L 614.24306 276.838219 
L 610.539244 277.414828 
L 606.835428 277.054358 
L 603.131612 281.453563 
L 599.427796 283.087614 
L 595.72398 285.707342 
L 592.020163 281.618234 
L 588.316347 284.247028 
L 584.612531 282.179987 
L 580.908715 283.304338 
L 577.204899 287.02302 
L 573.501083 288.692044 
L 569.797267 291.026222 
L 566.09345 291.047928 
L 562.389634 289.635796 
L 558.685818 294.015624 
L 554.982002 296.577828 
L 551.278186 299.360746 
L 547.57437 302.46373 
L 543.870554 304.468276 
L 540.166738 303.917218 
L 536.462921 304.075541 
L 532.759105 307.997134 
L 529.055289 308.663494 
L 525.351473 309.351061 
L 521.647657 311.765646 
L 517.943841 311.364278 
L 514.240025 314.331098 
L 510.536208 315.874539 
L 506.832392 315.561246 
L 503.128576 314.633566 
L 499.42476 318.031183 
L 495.720944 320.970359 
L 492.017128 323.336336 
L 488.313312 327.164768 
L 484.609495 327.068237 
L 480.905679 327.015309 
L 477.201863 331.120552 
L 473.498047 333.157734 
L 469.794231 333.767038 
L 466.090415 335.636358 
L 462.386599 335.072942 
L 458.682782 335.632756 
L 454.978966 338.420049 
L 451.27515 339.026296 
L 447.571334 340.295358 
L 443.867518 340.31884 
L 440.163702 339.434447 
L 436.459886 342.320656 
L 432.75607 343.579804 
L 429.052253 344.442239 
L 425.348437 342.82704 
L 421.644621 344.421248 
L 417.940805 345.199307 
L 414.236989 344.244265 
L 410.533173 345.416228 
L 406.829357 343.896728 
L 403.12554 346.034947 
L 399.421724 348.856321 
L 395.717908 347.692257 
L 392.014092 348.520301 
L 388.310276 350.131423 
L 384.60646 351.15353 
L 380.902644 351.86364 
L 377.198827 351.818662 
L 373.495011 350.446231 
L 369.791195 348.340682 
L 366.087379 349.796966 
L 362.383563 348.018063 
L 358.679747 349.071446 
L 354.975931 349.123787 
L 351.272114 348.683218 
L 347.568298 348.207589 
L 343.864482 348.238117 
L 340.160666 346.737568 
L 336.45685 346.748385 
L 332.753034 345.566457 
L 329.049218 344.240922 
L 325.345401 341.785645 
L 321.641585 342.556087 
L 317.937769 345.659548 
L 314.233953 345.645889 
L 310.530137 346.467869 
L 306.826321 346.241756 
L 303.122505 348.555618 
L 299.418689 349.351229 
L 295.714872 349.818873 
L 292.011056 352.108087 
L 288.30724 352.456809 
L 284.603424 352.228412 
L 280.899608 353.23512 
L 277.195792 357.065966 
L 273.491976 357.93953 
L 269.788159 358.01801 
L 266.084343 359.324775 
L 262.380527 359.263955 
L 258.676711 357.1479 
L 254.972895 356.932634 
L 251.269079 356.204647 
L 247.565263 355.719168 
L 243.861446 354.337992 
L 240.15763 356.307443 
L 236.453814 356.923771 
L 232.749998 358.25708 
L 229.046182 361.184945 
L 225.342366 363.220788 
L 221.63855 364.230549 
L 217.934733 364.588348 
L 214.230917 366.66462 
L 210.527101 366.326442 
L 206.823285 366.424706 
L 203.119469 368.413123 
L 199.415653 370.353981 
L 195.711837 375.16281 
L 192.008021 383.781767 
L 188.304204 396.205565 
L 184.600388 409.678993 
L 180.896572 419.675228 
L 177.192756 430.968991 
L 173.48894 439.462429 
L 169.785124 452.130149 
L 166.081308 455.79562 
L 162.377491 460.869252 
L 158.673675 461.06423 
L 154.969859 463.14003 
L 151.266043 476.82147 
z
" clip-path="url(#p3a3f2f5cce)" style="fill: #1f77b4; fill-opacity: 0.15"/>
   </g>
   <g id="PolyCollection_2">
    <path d="M 150.834545 480.248549 
L 150.834545 480.248549 
L 154.54053 463.070874 
L 158.246514 462.682921 
L 161.952499 462.213484 
L 165.658483 458.403571 
L 169.364468 453.776365 
L 173.070452 444.664255 
L 176.776437 437.061849 
L 180.482421 427.695815 
L 184.188406 415.419981 
L 187.89439 405.007465 
L 191.600375 397.612336 
L 195.306359 388.726961 
L 199.012344 382.159293 
L 202.718328 378.338925 
L 206.424312 374.464483 
L 210.130297 374.082242 
L 213.836281 375.084363 
L 217.542266 373.709815 
L 221.24825 370.828897 
L 224.954235 369.41935 
L 228.660219 371.363173 
L 232.366204 373.151723 
L 236.072188 374.337579 
L 239.778173 374.141509 
L 243.484157 375.245609 
L 247.190142 377.057381 
L 250.896126 376.271251 
L 254.602111 376.809621 
L 258.308095 377.64321 
L 262.014079 376.078813 
L 265.720064 373.630224 
L 269.426048 371.02629 
L 273.132033 370.269634 
L 276.838017 368.808474 
L 280.544002 367.002264 
L 284.249986 365.90734 
L 287.955971 364.041396 
L 291.661955 364.782745 
L 295.36794 364.144887 
L 299.073924 362.180676 
L 302.779909 360.962074 
L 306.485893 361.414306 
L 310.191878 360.917475 
L 313.897862 361.388809 
L 317.603847 360.852171 
L 321.309831 358.367715 
L 325.015815 360.403071 
L 328.7218 361.747094 
L 332.427784 358.80279 
L 336.133769 355.473401 
L 339.839753 352.401343 
L 343.545738 349.501603 
L 347.251722 348.276717 
L 350.957707 347.065608 
L 354.663691 344.357674 
L 358.369676 342.171077 
L 362.07566 339.257044 
L 365.781645 337.214354 
L 369.487629 337.362777 
L 373.193614 339.127846 
L 376.899598 335.395944 
L 380.605582 332.677913 
L 384.311567 332.748289 
L 388.017551 333.872861 
L 391.723536 332.129618 
L 395.42952 330.119202 
L 399.135505 328.013742 
L 402.841489 328.198309 
L 406.547474 326.475684 
L 410.253458 321.826326 
L 413.959443 321.229526 
L 417.665427 317.236887 
L 421.371412 312.67376 
L 425.077396 310.438883 
L 428.783381 306.611546 
L 432.489365 305.18289 
L 436.195349 301.855863 
L 439.901334 301.11871 
L 443.607318 299.568277 
L 447.313303 299.516586 
L 451.019287 296.401885 
L 454.725272 296.423118 
L 458.431256 294.274325 
L 462.137241 294.099937 
L 465.843225 291.858973 
L 469.54921 292.433897 
L 473.255194 289.737843 
L 476.961179 288.269888 
L 480.667163 287.307471 
L 484.373148 285.629443 
L 488.079132 285.388909 
L 491.785116 286.11059 
L 495.491101 286.51315 
L 499.197085 286.595909 
L 502.90307 285.70183 
L 506.609054 283.632519 
L 510.315039 282.208904 
L 514.021023 280.387792 
L 517.727008 280.222887 
L 521.432992 276.227473 
L 525.138977 274.771487 
L 528.844961 270.011641 
L 532.550946 270.096745 
L 536.25693 264.46548 
L 539.962915 260.407958 
L 543.668899 260.271906 
L 547.374884 260.206548 
L 551.080868 261.238368 
L 554.786852 258.364073 
L 558.492837 258.364297 
L 562.198821 257.494452 
L 565.904806 257.211073 
L 569.61079 257.486829 
L 573.316775 256.97093 
L 577.022759 257.876848 
L 580.728744 256.066668 
L 584.434728 255.335718 
L 588.140713 250.831579 
L 591.846697 249.922235 
L 595.552682 249.647754 
L 599.258666 252.643838 
L 602.964651 253.361791 
L 606.670635 250.771531 
L 610.376619 248.771292 
L 614.082604 249.253065 
L 617.788588 251.353974 
L 621.494573 253.372122 
L 625.200557 254.677245 
L 628.906542 256.75892 
L 632.612526 255.293339 
L 636.318511 253.728299 
L 640.024495 252.91166 
L 643.73048 253.522352 
L 647.436464 253.231197 
L 651.142449 251.086394 
L 654.848433 248.381839 
L 658.554418 246.255992 
L 662.260402 244.787293 
L 665.966386 243.29007 
L 669.672371 241.635124 
L 673.378355 240.634079 
L 677.08434 241.497319 
L 680.790324 240.319682 
L 684.496309 241.963203 
L 688.202293 241.42235 
L 691.908278 240.266987 
L 695.614262 238.987728 
L 699.320247 240.265056 
L 703.026231 240.177283 
L 706.732216 240.181107 
L 710.4382 241.041186 
L 714.144185 242.230372 
L 717.850169 241.462853 
L 721.556153 239.83925 
L 725.262138 238.264002 
L 728.968122 237.569493 
L 732.674107 236.105416 
L 736.380091 235.241721 
L 740.086076 234.436495 
L 743.79206 232.592389 
L 747.498045 231.211679 
L 751.204029 229.591825 
L 754.910014 230.329345 
L 758.615998 231.164745 
L 762.321983 231.617487 
L 766.027967 228.78374 
L 769.733952 226.81544 
L 773.439936 223.810026 
L 777.145921 223.721969 
L 780.851905 223.281927 
L 784.557889 224.757402 
L 788.263874 226.263875 
L 791.969858 226.522427 
L 795.675843 227.276301 
L 799.381827 227.222876 
L 803.087812 227.366596 
L 806.793796 227.953736 
L 810.499781 225.866144 
L 814.205765 223.685469 
L 817.91175 221.52055 
L 821.617734 219.998349 
L 825.323719 218.058739 
L 829.029703 218.699476 
L 832.735688 220.638266 
L 836.441672 218.68332 
L 840.147656 218.75923 
L 843.853641 217.469247 
L 847.559625 220.108999 
L 851.26561 221.537065 
L 854.971594 219.517843 
L 858.677579 218.722864 
L 862.383563 215.80512 
L 866.089548 215.66098 
L 869.795532 215.342628 
L 873.501517 212.697424 
L 877.207501 212.146118 
L 880.913486 208.674954 
L 884.61947 205.487717 
L 888.325455 205.825502 
L 888.325455 35.122081 
L 888.325455 35.122081 
L 884.61947 36.775391 
L 880.913486 34.375282 
L 877.207501 35.118996 
L 873.501517 34.140813 
L 869.795532 36.510899 
L 866.089548 37.248734 
L 862.383563 34.969833 
L 858.677579 34.770375 
L 854.971594 33.209091 
L 851.26561 34.988678 
L 847.559625 36.386947 
L 843.853641 39.198887 
L 840.147656 41.919986 
L 836.441672 42.81256 
L 832.735688 45.480655 
L 829.029703 45.079951 
L 825.323719 46.285094 
L 821.617734 49.539915 
L 817.91175 48.338459 
L 814.205765 49.832897 
L 810.499781 49.147564 
L 806.793796 49.296675 
L 803.087812 49.802559 
L 799.381827 50.624859 
L 795.675843 51.323731 
L 791.969858 49.47279 
L 788.263874 48.25874 
L 784.557889 50.123103 
L 780.851905 52.157314 
L 777.145921 52.051378 
L 773.439936 52.970604 
L 769.733952 52.701143 
L 766.027967 55.111592 
L 762.321983 57.875706 
L 758.615998 61.00651 
L 754.910014 62.512642 
L 751.204029 62.274297 
L 747.498045 62.140486 
L 743.79206 63.096715 
L 740.086076 64.5531 
L 736.380091 66.081778 
L 732.674107 66.404264 
L 728.968122 69.206653 
L 725.262138 68.87035 
L 721.556153 68.634966 
L 717.850169 69.655608 
L 714.144185 69.746666 
L 710.4382 68.440335 
L 706.732216 70.619937 
L 703.026231 72.251952 
L 699.320247 72.948244 
L 695.614262 75.394646 
L 691.908278 77.029869 
L 688.202293 81.993512 
L 684.496309 85.842084 
L 680.790324 84.044655 
L 677.08434 85.324978 
L 673.378355 84.838877 
L 669.672371 88.576398 
L 665.966386 89.858583 
L 662.260402 93.01954 
L 658.554418 93.789413 
L 654.848433 96.260213 
L 651.142449 98.443477 
L 647.436464 98.768628 
L 643.73048 100.649614 
L 640.024495 98.16242 
L 636.318511 101.045035 
L 632.612526 105.388386 
L 628.906542 103.74378 
L 625.200557 102.66013 
L 621.494573 102.601186 
L 617.788588 105.504208 
L 614.082604 104.176251 
L 610.376619 107.055281 
L 606.670635 108.883784 
L 602.964651 111.267062 
L 599.258666 112.92738 
L 595.552682 115.766806 
L 591.846697 116.771282 
L 588.140713 121.879186 
L 584.434728 124.304037 
L 580.728744 127.471817 
L 577.022759 130.627426 
L 573.316775 131.337172 
L 569.61079 135.08548 
L 565.904806 136.340288 
L 562.198821 136.360618 
L 558.492837 137.241762 
L 554.786852 137.694952 
L 551.080868 139.890868 
L 547.374884 144.254329 
L 543.668899 145.440726 
L 539.962915 149.353755 
L 536.25693 154.047229 
L 532.550946 155.35131 
L 528.844961 157.178067 
L 525.138977 162.322359 
L 521.432992 167.653719 
L 517.727008 174.576192 
L 514.021023 178.286992 
L 510.315039 179.948741 
L 506.609054 181.397235 
L 502.90307 181.269574 
L 499.197085 182.801687 
L 495.491101 185.115126 
L 491.785116 187.871798 
L 488.079132 190.600336 
L 484.373148 191.810357 
L 480.667163 193.764884 
L 476.961179 196.297333 
L 473.255194 198.4115 
L 469.54921 202.555185 
L 465.843225 207.859151 
L 462.137241 210.866295 
L 458.431256 211.393322 
L 454.725272 212.41305 
L 451.019287 217.551222 
L 447.313303 223.10634 
L 443.607318 225.397106 
L 439.901334 228.218586 
L 436.195349 231.704202 
L 432.489365 234.978664 
L 428.783381 236.812245 
L 425.077396 242.785215 
L 421.371412 248.172314 
L 417.665427 252.653387 
L 413.959443 255.966756 
L 410.253458 257.36711 
L 406.547474 260.859341 
L 402.841489 262.960641 
L 399.135505 266.008064 
L 395.42952 268.023593 
L 391.723536 272.171947 
L 388.017551 274.022181 
L 384.311567 276.690796 
L 380.605582 279.639031 
L 376.899598 282.08936 
L 373.193614 285.966759 
L 369.487629 286.437233 
L 365.781645 289.875158 
L 362.07566 294.173577 
L 358.369676 296.033217 
L 354.663691 298.646344 
L 350.957707 299.701835 
L 347.251722 301.175885 
L 343.545738 302.624863 
L 339.839753 305.734229 
L 336.133769 308.157291 
L 332.427784 308.770323 
L 328.7218 309.745977 
L 325.015815 310.477349 
L 321.309831 312.008716 
L 317.603847 312.917695 
L 313.897862 315.037882 
L 310.191878 316.148759 
L 306.485893 318.606086 
L 302.779909 321.227293 
L 299.073924 323.103148 
L 295.36794 326.088468 
L 291.661955 328.314346 
L 287.955971 329.404451 
L 284.249986 330.999458 
L 280.544002 334.403365 
L 276.838017 333.729149 
L 273.132033 334.66035 
L 269.426048 334.553526 
L 265.720064 334.062033 
L 262.014079 335.666109 
L 258.308095 336.850625 
L 254.602111 336.567308 
L 250.896126 336.491203 
L 247.190142 335.641952 
L 243.484157 335.610201 
L 239.778173 336.939476 
L 236.072188 337.822911 
L 232.366204 336.172312 
L 228.660219 337.106584 
L 224.954235 337.498778 
L 221.24825 340.059341 
L 217.542266 340.863848 
L 213.836281 343.261675 
L 210.130297 344.20891 
L 206.424312 346.927401 
L 202.718328 352.774866 
L 199.012344 360.374719 
L 195.306359 367.31238 
L 191.600375 378.691066 
L 187.89439 388.558293 
L 184.188406 403.447749 
L 180.482421 415.308302 
L 176.776437 425.038483 
L 173.070452 437.045917 
L 169.364468 446.375849 
L 165.658483 455.097174 
L 161.952499 458.805886 
L 158.246514 459.152278 
L 154.54053 460.14345 
L 150.834545 480.248549 
z
" clip-path="url(#p3a3f2f5cce)" style="fill: #ff7f0e; fill-opacity: 0.15"/>
   </g>
   <g id="PolyCollection_3">
    <path d="M 150.95783 469.427963 
L 150.95783 479.645539 
L 154.663195 463.855086 
L 158.36856 463.181405 
L 162.073925 462.514285 
L 165.77929 459.052132 
L 169.484655 454.732313 
L 173.19002 448.810804 
L 176.895385 438.31156 
L 180.60075 426.912268 
L 184.306115 418.088878 
L 188.01148 405.264818 
L 191.716845 394.71992 
L 195.42221 381.488466 
L 199.127575 373.10624 
L 202.83294 363.584513 
L 206.538305 358.367227 
L 210.24367 354.455449 
L 213.949035 352.598675 
L 217.654399 350.746105 
L 221.359764 348.994523 
L 225.065129 349.609989 
L 228.770494 349.372484 
L 232.475859 350.121834 
L 236.181224 350.938747 
L 239.886589 349.409998 
L 243.591954 348.184462 
L 247.297319 348.596349 
L 251.002684 347.989705 
L 254.708049 346.257975 
L 258.413414 343.846872 
L 262.118779 343.018924 
L 265.824144 340.565026 
L 269.529509 338.717469 
L 273.234874 336.547067 
L 276.940239 332.590438 
L 280.645604 331.469229 
L 284.350968 329.038511 
L 288.056333 329.207198 
L 291.761698 327.522606 
L 295.467063 325.089805 
L 299.172428 327.325866 
L 302.877793 326.404185 
L 306.583158 325.740796 
L 310.288523 324.662711 
L 313.993888 325.15643 
L 317.699253 325.1069 
L 321.404618 326.210582 
L 325.109983 327.918507 
L 328.815348 329.910594 
L 332.520713 330.700895 
L 336.226078 332.40673 
L 339.931443 332.304418 
L 343.636808 333.079847 
L 347.342173 334.927914 
L 351.047537 333.744742 
L 354.752902 332.319466 
L 358.458267 330.221745 
L 362.163632 330.773569 
L 365.868997 329.774652 
L 369.574362 328.669533 
L 373.279727 325.999049 
L 376.985092 324.267407 
L 380.690457 321.325638 
L 384.395822 318.94932 
L 388.101187 318.772182 
L 391.806552 319.308735 
L 395.511917 311.957648 
L 399.217282 308.686768 
L 402.922647 307.319359 
L 406.628012 305.340822 
L 410.333377 303.336502 
L 414.038742 299.585295 
L 417.744107 300.757479 
L 421.449471 298.147038 
L 425.154836 295.432943 
L 428.860201 292.412476 
L 432.565566 288.267283 
L 436.270931 285.836639 
L 439.976296 280.441492 
L 443.681661 276.851089 
L 447.387026 273.725741 
L 451.092391 268.903579 
L 454.797756 264.484779 
L 458.503121 261.827777 
L 462.208486 257.120191 
L 465.913851 257.0248 
L 469.619216 254.254373 
L 473.324581 249.146376 
L 477.029946 248.448077 
L 480.735311 245.277417 
L 484.440676 241.041337 
L 488.14604 237.175308 
L 491.851405 236.413106 
L 495.55677 236.677775 
L 499.262135 234.119967 
L 502.9675 229.364063 
L 506.672865 229.420362 
L 510.37823 228.949715 
L 514.083595 228.620522 
L 517.78896 222.865025 
L 521.494325 220.964878 
L 525.19969 219.156035 
L 528.905055 217.530921 
L 532.61042 213.082403 
L 536.315785 210.482202 
L 540.02115 211.318932 
L 543.726515 205.457435 
L 547.43188 202.781842 
L 551.137245 199.889991 
L 554.842609 199.564051 
L 558.547974 199.519292 
L 562.253339 195.319969 
L 565.958704 195.098694 
L 569.664069 192.998345 
L 573.369434 191.054045 
L 577.074799 188.516728 
L 580.780164 186.817871 
L 584.485529 188.600183 
L 588.190894 182.661215 
L 591.896259 179.595319 
L 595.601624 179.433709 
L 599.306989 180.743059 
L 603.012354 175.881014 
L 606.717719 172.458027 
L 610.423084 171.174889 
L 614.128449 169.460731 
L 617.833814 169.650418 
L 621.539178 163.99581 
L 625.244543 162.601105 
L 628.949908 160.12162 
L 632.655273 158.481959 
L 636.360638 155.666954 
L 640.066003 153.865126 
L 643.771368 152.196502 
L 647.476733 154.400795 
L 651.182098 153.29159 
L 654.887463 152.801767 
L 658.592828 150.511179 
L 662.298193 147.553124 
L 666.003558 143.826288 
L 669.708923 144.215079 
L 673.414288 145.083341 
L 677.119653 144.607674 
L 680.825018 140.594524 
L 684.530383 136.385262 
L 688.235748 132.395601 
L 691.941112 133.490894 
L 695.646477 133.757841 
L 699.351842 130.161678 
L 703.057207 130.553343 
L 706.762572 128.986427 
L 710.467937 131.671467 
L 714.173302 131.338039 
L 717.878667 129.644041 
L 721.584032 127.388828 
L 725.289397 128.490037 
L 728.994762 128.507988 
L 732.700127 126.064107 
L 736.405492 122.454529 
L 740.110857 123.64725 
L 743.816222 123.375983 
L 747.521587 122.810115 
L 751.226952 122.270762 
L 754.932317 119.430578 
L 758.637681 114.906727 
L 762.343046 111.119712 
L 766.048411 109.945397 
L 769.753776 110.986207 
L 773.459141 110.540988 
L 777.164506 107.178687 
L 780.869871 108.119224 
L 784.575236 107.771501 
L 788.280601 106.866218 
L 791.985966 106.81121 
L 795.691331 107.781628 
L 799.396696 106.483286 
L 803.102061 104.287397 
L 806.807426 101.106075 
L 810.512791 100.011017 
L 814.218156 100.544695 
L 817.923521 99.139182 
L 821.628886 97.474098 
L 825.33425 96.184821 
L 829.039615 93.910663 
L 832.74498 94.063199 
L 836.450345 94.912137 
L 840.15571 92.79809 
L 843.861075 90.993045 
L 847.56644 92.287771 
L 851.271805 92.82345 
L 854.97717 98.091253 
L 858.682535 98.135148 
L 862.3879 96.073395 
L 866.093265 95.993919 
L 869.79863 97.237712 
L 873.503995 98.074893 
L 877.20936 97.199364 
L 880.914725 96.160564 
L 884.62009 94.186323 
L 888.325455 93.594281 
L 888.325455 75.179017 
L 888.325455 75.179017 
L 884.62009 76.402201 
L 880.914725 74.410505 
L 877.20936 73.715794 
L 873.503995 74.361064 
L 869.79863 73.895928 
L 866.093265 74.836623 
L 862.3879 74.708356 
L 858.682535 76.646865 
L 854.97717 77.333846 
L 851.271805 81.926379 
L 847.56644 84.541741 
L 843.861075 84.390539 
L 840.15571 84.228304 
L 836.450345 84.792425 
L 832.74498 84.545845 
L 829.039615 87.009237 
L 825.33425 88.879053 
L 821.628886 89.333327 
L 817.923521 90.837658 
L 814.218156 92.584412 
L 810.512791 92.452122 
L 806.807426 89.260482 
L 803.102061 87.182732 
L 799.396696 86.348638 
L 795.691331 86.847925 
L 791.985966 90.241833 
L 788.280601 91.953272 
L 784.575236 92.548657 
L 780.869871 94.036436 
L 777.164506 94.771765 
L 773.459141 95.668558 
L 769.753776 96.140582 
L 766.048411 94.212279 
L 762.343046 96.009742 
L 758.637681 97.538011 
L 754.932317 98.078883 
L 751.226952 100.429943 
L 747.521587 102.883128 
L 743.816222 104.529764 
L 740.110857 106.318933 
L 736.405492 106.557223 
L 732.700127 105.902054 
L 728.994762 106.384948 
L 725.289397 107.845723 
L 721.584032 109.369416 
L 717.878667 108.574761 
L 714.173302 109.518322 
L 710.467937 110.595749 
L 706.762572 112.331331 
L 703.057207 111.909075 
L 699.351842 110.357455 
L 695.646477 113.735585 
L 691.941112 114.975816 
L 688.235748 115.506527 
L 684.530383 116.796719 
L 680.825018 116.165102 
L 677.119653 117.22597 
L 673.414288 118.048468 
L 669.708923 119.210891 
L 666.003558 121.768873 
L 662.298193 121.8363 
L 658.592828 123.429323 
L 654.887463 129.702451 
L 651.182098 129.801187 
L 647.476733 128.086472 
L 643.771368 130.827097 
L 640.066003 131.621091 
L 636.360638 134.77544 
L 632.655273 134.189206 
L 628.949908 137.395513 
L 625.244543 140.146147 
L 621.539178 138.622494 
L 617.833814 139.236023 
L 614.128449 138.86033 
L 610.423084 138.660801 
L 606.717719 140.787226 
L 603.012354 143.287899 
L 599.306989 145.669556 
L 595.601624 145.542864 
L 591.896259 146.965172 
L 588.190894 148.533053 
L 584.485529 151.345513 
L 580.780164 152.142578 
L 577.074799 156.336165 
L 573.369434 156.211341 
L 569.664069 158.153303 
L 565.958704 162.710795 
L 562.253339 163.714928 
L 558.547974 165.204612 
L 554.842609 167.124554 
L 551.137245 170.978396 
L 547.43188 173.039662 
L 543.726515 173.612521 
L 540.02115 174.177252 
L 536.315785 176.486173 
L 532.61042 179.079924 
L 528.905055 178.988017 
L 525.19969 179.611753 
L 521.494325 178.150851 
L 517.78896 179.75451 
L 514.083595 179.529183 
L 510.37823 181.935649 
L 506.672865 184.575917 
L 502.9675 183.956106 
L 499.262135 188.124693 
L 495.55677 188.142773 
L 491.851405 192.035837 
L 488.14604 196.087991 
L 484.440676 199.484162 
L 480.735311 202.752597 
L 477.029946 204.350453 
L 473.324581 204.854696 
L 469.619216 205.674403 
L 465.913851 206.301175 
L 462.208486 209.256551 
L 458.503121 208.682666 
L 454.797756 212.11674 
L 451.092391 215.511978 
L 447.387026 215.567946 
L 443.681661 217.265232 
L 439.976296 221.566822 
L 436.270931 223.818067 
L 432.565566 228.275064 
L 428.860201 229.462062 
L 425.154836 231.189318 
L 421.449471 233.893439 
L 417.744107 235.468823 
L 414.038742 237.158093 
L 410.333377 239.582452 
L 406.628012 241.635819 
L 402.922647 242.962434 
L 399.217282 247.174439 
L 395.511917 248.02791 
L 391.806552 252.328169 
L 388.101187 253.139585 
L 384.395822 256.070429 
L 380.690457 259.268711 
L 376.985092 263.601345 
L 373.279727 265.791943 
L 369.574362 269.033381 
L 365.868997 271.271157 
L 362.163632 270.437969 
L 358.458267 273.671402 
L 354.752902 276.182555 
L 351.047537 278.2685 
L 347.342173 282.124387 
L 343.636808 284.378883 
L 339.931443 286.977194 
L 336.226078 290.782345 
L 332.520713 294.116196 
L 328.815348 298.798326 
L 325.109983 302.694354 
L 321.404618 308.109229 
L 317.699253 308.679004 
L 313.993888 311.584774 
L 310.288523 312.549917 
L 306.583158 314.832105 
L 302.877793 314.879048 
L 299.172428 314.898836 
L 295.467063 317.056586 
L 291.761698 319.017814 
L 288.056333 317.860929 
L 284.350968 319.282277 
L 280.645604 318.900641 
L 276.940239 319.174449 
L 273.234874 319.100624 
L 269.529509 317.966686 
L 265.824144 317.209921 
L 262.118779 318.557471 
L 258.413414 315.876757 
L 254.708049 314.281395 
L 251.002684 313.740901 
L 247.297319 311.172706 
L 243.591954 311.4368 
L 239.886589 310.210759 
L 236.181224 307.237281 
L 232.475859 306.020429 
L 228.770494 305.656187 
L 225.065129 306.059268 
L 221.359764 308.729345 
L 217.654399 313.947201 
L 213.949035 319.933306 
L 210.24367 329.521006 
L 206.538305 338.594709 
L 202.83294 346.744124 
L 199.127575 363.00694 
L 195.42221 376.4137 
L 191.716845 387.800571 
L 188.01148 400.165801 
L 184.306115 410.980578 
L 180.60075 423.406345 
L 176.895385 432.527322 
L 173.19002 441.886056 
L 169.484655 450.057315 
L 165.77929 455.368606 
L 162.073925 459.496976 
L 158.36856 460.208006 
L 154.663195 462.100303 
L 150.95783 469.427963 
z
" clip-path="url(#p3a3f2f5cce)" style="fill: #2ca02c; fill-opacity: 0.15"/>
   </g>
   <g id="matplotlib.axis_1">
    <g id="xtick_1">
     <g id="line2d_1">
      <path d="M 148.677058 503.8 
L 148.677058 10.8 
" clip-path="url(#p3a3f2f5cce)" style="fill: none; stroke: #b0b0b0; stroke-width: 0.8; stroke-linecap: square"/>
     </g>
     <g id="line2d_2">
      <defs>
       <path id="mb909bfd33d" d="M 0 0 
L 0 3.5 
" style="stroke: #000000; stroke-width: 0.8"/>
      </defs>
      <g>
       <use xlink:href="#mb909bfd33d" x="148.677058" y="503.8" style="stroke: #000000; stroke-width: 0.8"/>
      </g>
     </g>
     <g id="text_1">
      <!-- 0.0 -->
      <g transform="translate(128.002995 530.555938)scale(0.26 -0.26)">
       <defs>
        <path id="DejaVuSans-30" d="M 2034 4250 
Q 1547 4250 1301 3770 
Q 1056 3291 1056 2328 
Q 1056 1369 1301 889 
Q 1547 409 2034 409 
Q 2525 409 2770 889 
Q 3016 1369 3016 2328 
Q 3016 3291 2770 3770 
Q 2525 4250 2034 4250 
z
M 2034 4750 
Q 2819 4750 3233 4129 
Q 3647 3509 3647 2328 
Q 3647 1150 3233 529 
Q 2819 -91 2034 -91 
Q 1250 -91 836 529 
Q 422 1150 422 2328 
Q 422 3509 836 4129 
Q 1250 4750 2034 4750 
z
" transform="scale(0.015625)"/>
        <path id="DejaVuSans-2e" d="M 684 794 
L 1344 794 
L 1344 0 
L 684 0 
L 684 794 
z
" transform="scale(0.015625)"/>
       </defs>
       <use xlink:href="#DejaVuSans-30"/>
       <use xlink:href="#DejaVuSans-2e" x="63.623047"/>
       <use xlink:href="#DejaVuSans-30" x="95.410156"/>
      </g>
     </g>
    </g>
    <g id="xtick_2">
     <g id="line2d_3">
      <path d="M 271.962064 503.8 
L 271.962064 10.8 
" clip-path="url(#p3a3f2f5cce)" style="fill: none; stroke: #b0b0b0; stroke-width: 0.8; stroke-linecap: square"/>
     </g>
     <g id="line2d_4">
      <g>
       <use xlink:href="#mb909bfd33d" x="271.962064" y="503.8" style="stroke: #000000; stroke-width: 0.8"/>
      </g>
     </g>
     <g id="text_2">
      <!-- 0.2 -->
      <g transform="translate(251.288002 530.555938)scale(0.26 -0.26)">
       <defs>
        <path id="DejaVuSans-32" d="M 1228 531 
L 3431 531 
L 3431 0 
L 469 0 
L 469 531 
Q 828 903 1448 1529 
Q 2069 2156 2228 2338 
Q 2531 2678 2651 2914 
Q 2772 3150 2772 3378 
Q 2772 3750 2511 3984 
Q 2250 4219 1831 4219 
Q 1534 4219 1204 4116 
Q 875 4013 500 3803 
L 500 4441 
Q 881 4594 1212 4672 
Q 1544 4750 1819 4750 
Q 2544 4750 2975 4387 
Q 3406 4025 3406 3419 
Q 3406 3131 3298 2873 
Q 3191 2616 2906 2266 
Q 2828 2175 2409 1742 
Q 1991 1309 1228 531 
z
" transform="scale(0.015625)"/>
       </defs>
       <use xlink:href="#DejaVuSans-30"/>
       <use xlink:href="#DejaVuSans-2e" x="63.623047"/>
       <use xlink:href="#DejaVuSans-32" x="95.410156"/>
      </g>
     </g>
    </g>
    <g id="xtick_3">
     <g id="line2d_5">
      <path d="M 395.247071 503.8 
L 395.247071 10.8 
" clip-path="url(#p3a3f2f5cce)" style="fill: none; stroke: #b0b0b0; stroke-width: 0.8; stroke-linecap: square"/>
     </g>
     <g id="line2d_6">
      <g>
       <use xlink:href="#mb909bfd33d" x="395.247071" y="503.8" style="stroke: #000000; stroke-width: 0.8"/>
      </g>
     </g>
     <g id="text_3">
      <!-- 0.4 -->
      <g transform="translate(374.573008 530.555938)scale(0.26 -0.26)">
       <defs>
        <path id="DejaVuSans-34" d="M 2419 4116 
L 825 1625 
L 2419 1625 
L 2419 4116 
z
M 2253 4666 
L 3047 4666 
L 3047 1625 
L 3713 1625 
L 3713 1100 
L 3047 1100 
L 3047 0 
L 2419 0 
L 2419 1100 
L 313 1100 
L 313 1709 
L 2253 4666 
z
" transform="scale(0.015625)"/>
       </defs>
       <use xlink:href="#DejaVuSans-30"/>
       <use xlink:href="#DejaVuSans-2e" x="63.623047"/>
       <use xlink:href="#DejaVuSans-34" x="95.410156"/>
      </g>
     </g>
    </g>
    <g id="xtick_4">
     <g id="line2d_7">
      <path d="M 518.532077 503.8 
L 518.532077 10.8 
" clip-path="url(#p3a3f2f5cce)" style="fill: none; stroke: #b0b0b0; stroke-width: 0.8; stroke-linecap: square"/>
     </g>
     <g id="line2d_8">
      <g>
       <use xlink:href="#mb909bfd33d" x="518.532077" y="503.8" style="stroke: #000000; stroke-width: 0.8"/>
      </g>
     </g>
     <g id="text_4">
      <!-- 0.6 -->
      <g transform="translate(497.858015 530.555938)scale(0.26 -0.26)">
       <defs>
        <path id="DejaVuSans-36" d="M 2113 2584 
Q 1688 2584 1439 2293 
Q 1191 2003 1191 1497 
Q 1191 994 1439 701 
Q 1688 409 2113 409 
Q 2538 409 2786 701 
Q 3034 994 3034 1497 
Q 3034 2003 2786 2293 
Q 2538 2584 2113 2584 
z
M 3366 4563 
L 3366 3988 
Q 3128 4100 2886 4159 
Q 2644 4219 2406 4219 
Q 1781 4219 1451 3797 
Q 1122 3375 1075 2522 
Q 1259 2794 1537 2939 
Q 1816 3084 2150 3084 
Q 2853 3084 3261 2657 
Q 3669 2231 3669 1497 
Q 3669 778 3244 343 
Q 2819 -91 2113 -91 
Q 1303 -91 875 529 
Q 447 1150 447 2328 
Q 447 3434 972 4092 
Q 1497 4750 2381 4750 
Q 2619 4750 2861 4703 
Q 3103 4656 3366 4563 
z
" transform="scale(0.015625)"/>
       </defs>
       <use xlink:href="#DejaVuSans-30"/>
       <use xlink:href="#DejaVuSans-2e" x="63.623047"/>
       <use xlink:href="#DejaVuSans-36" x="95.410156"/>
      </g>
     </g>
    </g>
    <g id="xtick_5">
     <g id="line2d_9">
      <path d="M 641.817084 503.8 
L 641.817084 10.8 
" clip-path="url(#p3a3f2f5cce)" style="fill: none; stroke: #b0b0b0; stroke-width: 0.8; stroke-linecap: square"/>
     </g>
     <g id="line2d_10">
      <g>
       <use xlink:href="#mb909bfd33d" x="641.817084" y="503.8" style="stroke: #000000; stroke-width: 0.8"/>
      </g>
     </g>
     <g id="text_5">
      <!-- 0.8 -->
      <g transform="translate(621.143021 530.555938)scale(0.26 -0.26)">
       <defs>
        <path id="DejaVuSans-38" d="M 2034 2216 
Q 1584 2216 1326 1975 
Q 1069 1734 1069 1313 
Q 1069 891 1326 650 
Q 1584 409 2034 409 
Q 2484 409 2743 651 
Q 3003 894 3003 1313 
Q 3003 1734 2745 1975 
Q 2488 2216 2034 2216 
z
M 1403 2484 
Q 997 2584 770 2862 
Q 544 3141 544 3541 
Q 544 4100 942 4425 
Q 1341 4750 2034 4750 
Q 2731 4750 3128 4425 
Q 3525 4100 3525 3541 
Q 3525 3141 3298 2862 
Q 3072 2584 2669 2484 
Q 3125 2378 3379 2068 
Q 3634 1759 3634 1313 
Q 3634 634 3220 271 
Q 2806 -91 2034 -91 
Q 1263 -91 848 271 
Q 434 634 434 1313 
Q 434 1759 690 2068 
Q 947 2378 1403 2484 
z
M 1172 3481 
Q 1172 3119 1398 2916 
Q 1625 2713 2034 2713 
Q 2441 2713 2670 2916 
Q 2900 3119 2900 3481 
Q 2900 3844 2670 4047 
Q 2441 4250 2034 4250 
Q 1625 4250 1398 4047 
Q 1172 3844 1172 3481 
z
" transform="scale(0.015625)"/>
       </defs>
       <use xlink:href="#DejaVuSans-30"/>
       <use xlink:href="#DejaVuSans-2e" x="63.623047"/>
       <use xlink:href="#DejaVuSans-38" x="95.410156"/>
      </g>
     </g>
    </g>
    <g id="xtick_6">
     <g id="line2d_11">
      <path d="M 765.102091 503.8 
L 765.102091 10.8 
" clip-path="url(#p3a3f2f5cce)" style="fill: none; stroke: #b0b0b0; stroke-width: 0.8; stroke-linecap: square"/>
     </g>
     <g id="line2d_12">
      <g>
       <use xlink:href="#mb909bfd33d" x="765.102091" y="503.8" style="stroke: #000000; stroke-width: 0.8"/>
      </g>
     </g>
     <g id="text_6">
      <!-- 1.0 -->
      <g transform="translate(744.428028 530.555938)scale(0.26 -0.26)">
       <defs>
        <path id="DejaVuSans-31" d="M 794 531 
L 1825 531 
L 1825 4091 
L 703 3866 
L 703 4441 
L 1819 4666 
L 2450 4666 
L 2450 531 
L 3481 531 
L 3481 0 
L 794 0 
L 794 531 
z
" transform="scale(0.015625)"/>
       </defs>
       <use xlink:href="#DejaVuSans-31"/>
       <use xlink:href="#DejaVuSans-2e" x="63.623047"/>
       <use xlink:href="#DejaVuSans-30" x="95.410156"/>
      </g>
     </g>
    </g>
    <g id="xtick_7">
     <g id="line2d_13">
      <path d="M 888.387097 503.8 
L 888.387097 10.8 
" clip-path="url(#p3a3f2f5cce)" style="fill: none; stroke: #b0b0b0; stroke-width: 0.8; stroke-linecap: square"/>
     </g>
     <g id="line2d_14">
      <g>
       <use xlink:href="#mb909bfd33d" x="888.387097" y="503.8" style="stroke: #000000; stroke-width: 0.8"/>
      </g>
     </g>
     <g id="text_7">
      <!-- 1.2 -->
      <g transform="translate(867.713035 530.555938)scale(0.26 -0.26)">
       <use xlink:href="#DejaVuSans-31"/>
       <use xlink:href="#DejaVuSans-2e" x="63.623047"/>
       <use xlink:href="#DejaVuSans-32" x="95.410156"/>
      </g>
     </g>
    </g>
    <g id="text_8">
     <!-- Frames -->
     <g transform="translate(470.482188 560.478906)scale(0.27 -0.27)">
      <defs>
       <path id="DejaVuSans-46" d="M 628 4666 
L 3309 4666 
L 3309 4134 
L 1259 4134 
L 1259 2759 
L 3109 2759 
L 3109 2228 
L 1259 2228 
L 1259 0 
L 628 0 
L 628 4666 
z
" transform="scale(0.015625)"/>
       <path id="DejaVuSans-72" d="M 2631 2963 
Q 2534 3019 2420 3045 
Q 2306 3072 2169 3072 
Q 1681 3072 1420 2755 
Q 1159 2438 1159 1844 
L 1159 0 
L 581 0 
L 581 3500 
L 1159 3500 
L 1159 2956 
Q 1341 3275 1631 3429 
Q 1922 3584 2338 3584 
Q 2397 3584 2469 3576 
Q 2541 3569 2628 3553 
L 2631 2963 
z
" transform="scale(0.015625)"/>
       <path id="DejaVuSans-61" d="M 2194 1759 
Q 1497 1759 1228 1600 
Q 959 1441 959 1056 
Q 959 750 1161 570 
Q 1363 391 1709 391 
Q 2188 391 2477 730 
Q 2766 1069 2766 1631 
L 2766 1759 
L 2194 1759 
z
M 3341 1997 
L 3341 0 
L 2766 0 
L 2766 531 
Q 2569 213 2275 61 
Q 1981 -91 1556 -91 
Q 1019 -91 701 211 
Q 384 513 384 1019 
Q 384 1609 779 1909 
Q 1175 2209 1959 2209 
L 2766 2209 
L 2766 2266 
Q 2766 2663 2505 2880 
Q 2244 3097 1772 3097 
Q 1472 3097 1187 3025 
Q 903 2953 641 2809 
L 641 3341 
Q 956 3463 1253 3523 
Q 1550 3584 1831 3584 
Q 2591 3584 2966 3190 
Q 3341 2797 3341 1997 
z
" transform="scale(0.015625)"/>
       <path id="DejaVuSans-6d" d="M 3328 2828 
Q 3544 3216 3844 3400 
Q 4144 3584 4550 3584 
Q 5097 3584 5394 3201 
Q 5691 2819 5691 2113 
L 5691 0 
L 5113 0 
L 5113 2094 
Q 5113 2597 4934 2840 
Q 4756 3084 4391 3084 
Q 3944 3084 3684 2787 
Q 3425 2491 3425 1978 
L 3425 0 
L 2847 0 
L 2847 2094 
Q 2847 2600 2669 2842 
Q 2491 3084 2119 3084 
Q 1678 3084 1418 2786 
Q 1159 2488 1159 1978 
L 1159 0 
L 581 0 
L 581 3500 
L 1159 3500 
L 1159 2956 
Q 1356 3278 1631 3431 
Q 1906 3584 2284 3584 
Q 2666 3584 2933 3390 
Q 3200 3197 3328 2828 
z
" transform="scale(0.015625)"/>
       <path id="DejaVuSans-65" d="M 3597 1894 
L 3597 1613 
L 953 1613 
Q 991 1019 1311 708 
Q 1631 397 2203 397 
Q 2534 397 2845 478 
Q 3156 559 3463 722 
L 3463 178 
Q 3153 47 2828 -22 
Q 2503 -91 2169 -91 
Q 1331 -91 842 396 
Q 353 884 353 1716 
Q 353 2575 817 3079 
Q 1281 3584 2069 3584 
Q 2775 3584 3186 3129 
Q 3597 2675 3597 1894 
z
M 3022 2063 
Q 3016 2534 2758 2815 
Q 2500 3097 2075 3097 
Q 1594 3097 1305 2825 
Q 1016 2553 972 2059 
L 3022 2063 
z
" transform="scale(0.015625)"/>
       <path id="DejaVuSans-73" d="M 2834 3397 
L 2834 2853 
Q 2591 2978 2328 3040 
Q 2066 3103 1784 3103 
Q 1356 3103 1142 2972 
Q 928 2841 928 2578 
Q 928 2378 1081 2264 
Q 1234 2150 1697 2047 
L 1894 2003 
Q 2506 1872 2764 1633 
Q 3022 1394 3022 966 
Q 3022 478 2636 193 
Q 2250 -91 1575 -91 
Q 1294 -91 989 -36 
Q 684 19 347 128 
L 347 722 
Q 666 556 975 473 
Q 1284 391 1588 391 
Q 1994 391 2212 530 
Q 2431 669 2431 922 
Q 2431 1156 2273 1281 
Q 2116 1406 1581 1522 
L 1381 1569 
Q 847 1681 609 1914 
Q 372 2147 372 2553 
Q 372 3047 722 3315 
Q 1072 3584 1716 3584 
Q 2034 3584 2315 3537 
Q 2597 3491 2834 3397 
z
" transform="scale(0.015625)"/>
      </defs>
      <use xlink:href="#DejaVuSans-46"/>
      <use xlink:href="#DejaVuSans-72" x="50.269531"/>
      <use xlink:href="#DejaVuSans-61" x="91.382812"/>
      <use xlink:href="#DejaVuSans-6d" x="152.662109"/>
      <use xlink:href="#DejaVuSans-65" x="250.074219"/>
      <use xlink:href="#DejaVuSans-73" x="311.597656"/>
     </g>
    </g>
    <g id="text_9">
     <!-- 1e7 -->
     <g transform="translate(876.116875 558.719063)scale(0.26 -0.26)">
      <defs>
       <path id="DejaVuSans-37" d="M 525 4666 
L 3525 4666 
L 3525 4397 
L 1831 0 
L 1172 0 
L 2766 4134 
L 525 4134 
L 525 4666 
z
" transform="scale(0.015625)"/>
      </defs>
      <use xlink:href="#DejaVuSans-31"/>
      <use xlink:href="#DejaVuSans-65" x="63.623047"/>
      <use xlink:href="#DejaVuSans-37" x="125.146484"/>
     </g>
    </g>
   </g>
   <g id="matplotlib.axis_2">
    <g id="ytick_1">
     <g id="line2d_15">
      <path d="M 113.96 480.248549 
L 925.2 480.248549 
" clip-path="url(#p3a3f2f5cce)" style="fill: none; stroke: #b0b0b0; stroke-width: 0.8; stroke-linecap: square"/>
     </g>
     <g id="line2d_16">
      <defs>
       <path id="mef3dedc278" d="M 0 0 
L -3.5 0 
" style="stroke: #000000; stroke-width: 0.8"/>
      </defs>
      <g>
       <use xlink:href="#mef3dedc278" x="113.96" y="480.248549" style="stroke: #000000; stroke-width: 0.8"/>
      </g>
     </g>
     <g id="text_10">
      <!-- 0 -->
      <g transform="translate(90.4175 490.126518)scale(0.26 -0.26)">
       <use xlink:href="#DejaVuSans-30"/>
      </g>
     </g>
    </g>
    <g id="ytick_2">
     <g id="line2d_17">
      <path d="M 113.96 423.130565 
L 925.2 423.130565 
" clip-path="url(#p3a3f2f5cce)" style="fill: none; stroke: #b0b0b0; stroke-width: 0.8; stroke-linecap: square"/>
     </g>
     <g id="line2d_18">
      <g>
       <use xlink:href="#mef3dedc278" x="113.96" y="423.130565" style="stroke: #000000; stroke-width: 0.8"/>
      </g>
     </g>
     <g id="text_11">
      <!-- 200 -->
      <g transform="translate(57.3325 433.008534)scale(0.26 -0.26)">
       <use xlink:href="#DejaVuSans-32"/>
       <use xlink:href="#DejaVuSans-30" x="63.623047"/>
       <use xlink:href="#DejaVuSans-30" x="127.246094"/>
      </g>
     </g>
    </g>
    <g id="ytick_3">
     <g id="line2d_19">
      <path d="M 113.96 366.012581 
L 925.2 366.012581 
" clip-path="url(#p3a3f2f5cce)" style="fill: none; stroke: #b0b0b0; stroke-width: 0.8; stroke-linecap: square"/>
     </g>
     <g id="line2d_20">
      <g>
       <use xlink:href="#mef3dedc278" x="113.96" y="366.012581" style="stroke: #000000; stroke-width: 0.8"/>
      </g>
     </g>
     <g id="text_12">
      <!-- 400 -->
      <g transform="translate(57.3325 375.89055)scale(0.26 -0.26)">
       <use xlink:href="#DejaVuSans-34"/>
       <use xlink:href="#DejaVuSans-30" x="63.623047"/>
       <use xlink:href="#DejaVuSans-30" x="127.246094"/>
      </g>
     </g>
    </g>
    <g id="ytick_4">
     <g id="line2d_21">
      <path d="M 113.96 308.894597 
L 925.2 308.894597 
" clip-path="url(#p3a3f2f5cce)" style="fill: none; stroke: #b0b0b0; stroke-width: 0.8; stroke-linecap: square"/>
     </g>
     <g id="line2d_22">
      <g>
       <use xlink:href="#mef3dedc278" x="113.96" y="308.894597" style="stroke: #000000; stroke-width: 0.8"/>
      </g>
     </g>
     <g id="text_13">
      <!-- 600 -->
      <g transform="translate(57.3325 318.772566)scale(0.26 -0.26)">
       <use xlink:href="#DejaVuSans-36"/>
       <use xlink:href="#DejaVuSans-30" x="63.623047"/>
       <use xlink:href="#DejaVuSans-30" x="127.246094"/>
      </g>
     </g>
    </g>
    <g id="ytick_5">
     <g id="line2d_23">
      <path d="M 113.96 251.776613 
L 925.2 251.776613 
" clip-path="url(#p3a3f2f5cce)" style="fill: none; stroke: #b0b0b0; stroke-width: 0.8; stroke-linecap: square"/>
     </g>
     <g id="line2d_24">
      <g>
       <use xlink:href="#mef3dedc278" x="113.96" y="251.776613" style="stroke: #000000; stroke-width: 0.8"/>
      </g>
     </g>
     <g id="text_14">
      <!-- 800 -->
      <g transform="translate(57.3325 261.654582)scale(0.26 -0.26)">
       <use xlink:href="#DejaVuSans-38"/>
       <use xlink:href="#DejaVuSans-30" x="63.623047"/>
       <use xlink:href="#DejaVuSans-30" x="127.246094"/>
      </g>
     </g>
    </g>
    <g id="ytick_6">
     <g id="line2d_25">
      <path d="M 113.96 194.658629 
L 925.2 194.658629 
" clip-path="url(#p3a3f2f5cce)" style="fill: none; stroke: #b0b0b0; stroke-width: 0.8; stroke-linecap: square"/>
     </g>
     <g id="line2d_26">
      <g>
       <use xlink:href="#mef3dedc278" x="113.96" y="194.658629" style="stroke: #000000; stroke-width: 0.8"/>
      </g>
     </g>
     <g id="text_15">
      <!-- 1000 -->
      <g transform="translate(40.79 204.536598)scale(0.26 -0.26)">
       <use xlink:href="#DejaVuSans-31"/>
       <use xlink:href="#DejaVuSans-30" x="63.623047"/>
       <use xlink:href="#DejaVuSans-30" x="127.246094"/>
       <use xlink:href="#DejaVuSans-30" x="190.869141"/>
      </g>
     </g>
    </g>
    <g id="ytick_7">
     <g id="line2d_27">
      <path d="M 113.96 137.540645 
L 925.2 137.540645 
" clip-path="url(#p3a3f2f5cce)" style="fill: none; stroke: #b0b0b0; stroke-width: 0.8; stroke-linecap: square"/>
     </g>
     <g id="line2d_28">
      <g>
       <use xlink:href="#mef3dedc278" x="113.96" y="137.540645" style="stroke: #000000; stroke-width: 0.8"/>
      </g>
     </g>
     <g id="text_16">
      <!-- 1200 -->
      <g transform="translate(40.79 147.418614)scale(0.26 -0.26)">
       <use xlink:href="#DejaVuSans-31"/>
       <use xlink:href="#DejaVuSans-32" x="63.623047"/>
       <use xlink:href="#DejaVuSans-30" x="127.246094"/>
       <use xlink:href="#DejaVuSans-30" x="190.869141"/>
      </g>
     </g>
    </g>
    <g id="ytick_8">
     <g id="line2d_29">
      <path d="M 113.96 80.422661 
L 925.2 80.422661 
" clip-path="url(#p3a3f2f5cce)" style="fill: none; stroke: #b0b0b0; stroke-width: 0.8; stroke-linecap: square"/>
     </g>
     <g id="line2d_30">
      <g>
       <use xlink:href="#mef3dedc278" x="113.96" y="80.422661" style="stroke: #000000; stroke-width: 0.8"/>
      </g>
     </g>
     <g id="text_17">
      <!-- 1400 -->
      <g transform="translate(40.79 90.30063)scale(0.26 -0.26)">
       <use xlink:href="#DejaVuSans-31"/>
       <use xlink:href="#DejaVuSans-34" x="63.623047"/>
       <use xlink:href="#DejaVuSans-30" x="127.246094"/>
       <use xlink:href="#DejaVuSans-30" x="190.869141"/>
      </g>
     </g>
    </g>
    <g id="ytick_9">
     <g id="line2d_31">
      <path d="M 113.96 23.304677 
L 925.2 23.304677 
" clip-path="url(#p3a3f2f5cce)" style="fill: none; stroke: #b0b0b0; stroke-width: 0.8; stroke-linecap: square"/>
     </g>
     <g id="line2d_32">
      <g>
       <use xlink:href="#mef3dedc278" x="113.96" y="23.304677" style="stroke: #000000; stroke-width: 0.8"/>
      </g>
     </g>
     <g id="text_18">
      <!-- 1600 -->
      <g transform="translate(40.79 33.182646)scale(0.26 -0.26)">
       <use xlink:href="#DejaVuSans-31"/>
       <use xlink:href="#DejaVuSans-36" x="63.623047"/>
       <use xlink:href="#DejaVuSans-30" x="127.246094"/>
       <use xlink:href="#DejaVuSans-30" x="190.869141"/>
      </g>
     </g>
    </g>
    <g id="text_19">
     <!-- Mean episodic score -->
     <g transform="translate(31.174844 394.597109)rotate(-90)scale(0.27 -0.27)">
      <defs>
       <path id="DejaVuSans-4d" d="M 628 4666 
L 1569 4666 
L 2759 1491 
L 3956 4666 
L 4897 4666 
L 4897 0 
L 4281 0 
L 4281 4097 
L 3078 897 
L 2444 897 
L 1241 4097 
L 1241 0 
L 628 0 
L 628 4666 
z
" transform="scale(0.015625)"/>
       <path id="DejaVuSans-6e" d="M 3513 2113 
L 3513 0 
L 2938 0 
L 2938 2094 
Q 2938 2591 2744 2837 
Q 2550 3084 2163 3084 
Q 1697 3084 1428 2787 
Q 1159 2491 1159 1978 
L 1159 0 
L 581 0 
L 581 3500 
L 1159 3500 
L 1159 2956 
Q 1366 3272 1645 3428 
Q 1925 3584 2291 3584 
Q 2894 3584 3203 3211 
Q 3513 2838 3513 2113 
z
" transform="scale(0.015625)"/>
       <path id="DejaVuSans-20" transform="scale(0.015625)"/>
       <path id="DejaVuSans-70" d="M 1159 525 
L 1159 -1331 
L 581 -1331 
L 581 3500 
L 1159 3500 
L 1159 2969 
Q 1341 3281 1617 3432 
Q 1894 3584 2278 3584 
Q 2916 3584 3314 3078 
Q 3713 2572 3713 1747 
Q 3713 922 3314 415 
Q 2916 -91 2278 -91 
Q 1894 -91 1617 61 
Q 1341 213 1159 525 
z
M 3116 1747 
Q 3116 2381 2855 2742 
Q 2594 3103 2138 3103 
Q 1681 3103 1420 2742 
Q 1159 2381 1159 1747 
Q 1159 1113 1420 752 
Q 1681 391 2138 391 
Q 2594 391 2855 752 
Q 3116 1113 3116 1747 
z
" transform="scale(0.015625)"/>
       <path id="DejaVuSans-69" d="M 603 3500 
L 1178 3500 
L 1178 0 
L 603 0 
L 603 3500 
z
M 603 4863 
L 1178 4863 
L 1178 4134 
L 603 4134 
L 603 4863 
z
" transform="scale(0.015625)"/>
       <path id="DejaVuSans-6f" d="M 1959 3097 
Q 1497 3097 1228 2736 
Q 959 2375 959 1747 
Q 959 1119 1226 758 
Q 1494 397 1959 397 
Q 2419 397 2687 759 
Q 2956 1122 2956 1747 
Q 2956 2369 2687 2733 
Q 2419 3097 1959 3097 
z
M 1959 3584 
Q 2709 3584 3137 3096 
Q 3566 2609 3566 1747 
Q 3566 888 3137 398 
Q 2709 -91 1959 -91 
Q 1206 -91 779 398 
Q 353 888 353 1747 
Q 353 2609 779 3096 
Q 1206 3584 1959 3584 
z
" transform="scale(0.015625)"/>
       <path id="DejaVuSans-64" d="M 2906 2969 
L 2906 4863 
L 3481 4863 
L 3481 0 
L 2906 0 
L 2906 525 
Q 2725 213 2448 61 
Q 2172 -91 1784 -91 
Q 1150 -91 751 415 
Q 353 922 353 1747 
Q 353 2572 751 3078 
Q 1150 3584 1784 3584 
Q 2172 3584 2448 3432 
Q 2725 3281 2906 2969 
z
M 947 1747 
Q 947 1113 1208 752 
Q 1469 391 1925 391 
Q 2381 391 2643 752 
Q 2906 1113 2906 1747 
Q 2906 2381 2643 2742 
Q 2381 3103 1925 3103 
Q 1469 3103 1208 2742 
Q 947 2381 947 1747 
z
" transform="scale(0.015625)"/>
       <path id="DejaVuSans-63" d="M 3122 3366 
L 3122 2828 
Q 2878 2963 2633 3030 
Q 2388 3097 2138 3097 
Q 1578 3097 1268 2742 
Q 959 2388 959 1747 
Q 959 1106 1268 751 
Q 1578 397 2138 397 
Q 2388 397 2633 464 
Q 2878 531 3122 666 
L 3122 134 
Q 2881 22 2623 -34 
Q 2366 -91 2075 -91 
Q 1284 -91 818 406 
Q 353 903 353 1747 
Q 353 2603 823 3093 
Q 1294 3584 2113 3584 
Q 2378 3584 2631 3529 
Q 2884 3475 3122 3366 
z
" transform="scale(0.015625)"/>
      </defs>
      <use xlink:href="#DejaVuSans-4d"/>
      <use xlink:href="#DejaVuSans-65" x="86.279297"/>
      <use xlink:href="#DejaVuSans-61" x="147.802734"/>
      <use xlink:href="#DejaVuSans-6e" x="209.082031"/>
      <use xlink:href="#DejaVuSans-20" x="272.460938"/>
      <use xlink:href="#DejaVuSans-65" x="304.248047"/>
      <use xlink:href="#DejaVuSans-70" x="365.771484"/>
      <use xlink:href="#DejaVuSans-69" x="429.248047"/>
      <use xlink:href="#DejaVuSans-73" x="457.03125"/>
      <use xlink:href="#DejaVuSans-6f" x="509.130859"/>
      <use xlink:href="#DejaVuSans-64" x="570.3125"/>
      <use xlink:href="#DejaVuSans-69" x="633.789062"/>
      <use xlink:href="#DejaVuSans-63" x="661.572266"/>
      <use xlink:href="#DejaVuSans-20" x="716.552734"/>
      <use xlink:href="#DejaVuSans-73" x="748.339844"/>
      <use xlink:href="#DejaVuSans-63" x="800.439453"/>
      <use xlink:href="#DejaVuSans-6f" x="855.419922"/>
      <use xlink:href="#DejaVuSans-72" x="916.601562"/>
      <use xlink:href="#DejaVuSans-65" x="955.464844"/>
     </g>
    </g>
   </g>
   <g id="line2d_33">
    <path d="M 151.266043 479.10619 
L 154.969859 464.023457 
L 158.673675 462.162234 
L 162.377491 461.849292 
L 166.081308 457.124288 
L 169.785124 453.018636 
L 173.48894 441.519203 
L 177.192756 432.351059 
L 184.600388 411.320927 
L 188.304204 398.272143 
L 192.008021 387.683608 
L 195.711837 380.58684 
L 199.415653 376.058564 
L 206.823285 372.341263 
L 210.527101 371.724934 
L 214.230917 372.626738 
L 217.934733 370.76457 
L 221.63855 369.075338 
L 225.342366 368.757816 
L 229.046182 367.620914 
L 232.749998 364.832178 
L 236.453814 364.636259 
L 240.15763 364.233702 
L 243.861446 364.085084 
L 247.565263 365.417744 
L 251.269079 365.353952 
L 254.972895 366.294772 
L 258.676711 366.06322 
L 262.380527 366.427317 
L 266.084343 365.025069 
L 269.788159 363.767334 
L 273.491976 363.794325 
L 277.195792 363.083459 
L 280.899608 360.766699 
L 284.603424 359.445943 
L 288.30724 359.089572 
L 292.011056 358.95561 
L 295.714872 357.51435 
L 306.826321 354.883174 
L 310.530137 354.861922 
L 314.233953 353.815861 
L 317.937769 354.048655 
L 321.641585 351.99822 
L 325.345401 352.422217 
L 332.753034 354.196748 
L 336.45685 353.367781 
L 343.864482 354.813172 
L 347.568298 353.927338 
L 351.272114 353.544117 
L 354.975931 354.019904 
L 358.679747 353.151096 
L 362.383563 353.24932 
L 366.087379 354.294229 
L 369.791195 352.659797 
L 373.495011 354.549372 
L 377.198827 355.735876 
L 384.60646 355.697353 
L 388.310276 353.740116 
L 392.014092 353.638992 
L 395.717908 353.35707 
L 399.421724 353.629691 
L 403.12554 352.415965 
L 406.829357 350.438822 
L 410.533173 350.958337 
L 414.236989 349.991761 
L 417.940805 349.833971 
L 436.459886 346.298846 
L 440.163702 344.764943 
L 443.867518 345.861986 
L 447.571334 345.903382 
L 451.27515 344.031386 
L 454.978966 343.316879 
L 458.682782 341.028389 
L 462.386599 340.966439 
L 466.090415 340.701676 
L 469.794231 338.76522 
L 473.498047 338.353832 
L 477.201863 336.650018 
L 480.905679 334.614181 
L 484.609495 333.618249 
L 488.313312 333.864548 
L 492.017128 331.378467 
L 495.720944 329.692686 
L 499.42476 327.677824 
L 503.128576 325.361245 
L 506.832392 325.559498 
L 510.536208 325.293921 
L 514.240025 323.251024 
L 517.943841 319.527451 
L 521.647657 319.326436 
L 525.351473 317.683262 
L 529.055289 319.000852 
L 532.759105 318.119571 
L 536.462921 314.668389 
L 540.166738 313.999453 
L 543.870554 313.901922 
L 547.57437 312.869046 
L 551.278186 311.634976 
L 554.982002 310.149008 
L 558.685818 307.937767 
L 562.389634 306.288622 
L 566.09345 307.606791 
L 569.797267 306.190915 
L 573.501083 305.355959 
L 577.204899 303.586485 
L 580.908715 300.444438 
L 584.612531 298.832653 
L 588.316347 297.890191 
L 592.020163 295.747895 
L 595.72398 295.797168 
L 599.427796 295.131922 
L 603.131612 293.484854 
L 606.835428 291.305131 
L 610.539244 291.317477 
L 614.24306 292.182029 
L 617.946876 292.1595 
L 621.650693 292.73878 
L 625.354509 289.599775 
L 629.058325 287.321989 
L 632.762141 287.782894 
L 636.465957 287.436811 
L 640.169773 287.486543 
L 643.873589 284.929995 
L 647.577406 282.62338 
L 651.281222 281.306314 
L 654.985038 278.585234 
L 658.688854 282.495063 
L 662.39267 278.814411 
L 666.096486 275.834521 
L 669.800302 272.698967 
L 673.504119 273.603307 
L 680.911751 269.782308 
L 684.615567 269.400771 
L 688.319383 268.082774 
L 692.023199 263.830551 
L 695.727015 262.638605 
L 699.430831 263.748032 
L 703.134648 261.390404 
L 706.838464 258.71179 
L 710.54228 258.314982 
L 714.246096 258.712376 
L 717.949912 255.816663 
L 721.653728 254.815405 
L 725.357544 252.866933 
L 729.061361 250.559311 
L 732.765177 247.855406 
L 736.468993 247.993933 
L 740.172809 248.307465 
L 743.876625 246.042393 
L 747.580441 242.444362 
L 751.284257 241.757715 
L 754.988074 238.994859 
L 758.69189 238.614108 
L 762.395706 240.47583 
L 766.099522 240.601478 
L 769.803338 239.65754 
L 773.507154 238.074355 
L 777.21097 237.460374 
L 780.914787 238.99923 
L 784.618603 238.782046 
L 792.026235 236.787552 
L 795.730051 233.668998 
L 799.433867 232.520093 
L 806.841499 228.279032 
L 810.545316 228.023002 
L 814.249132 226.747012 
L 817.952948 223.714752 
L 821.656764 222.549452 
L 825.36058 221.067354 
L 829.064396 220.319021 
L 832.768212 221.017796 
L 836.472029 219.676457 
L 840.175845 221.175468 
L 843.879661 219.380452 
L 847.583477 218.530812 
L 851.287293 216.40364 
L 854.991109 217.906035 
L 858.694925 217.185908 
L 862.398742 216.80999 
L 866.102558 216.969065 
L 869.806374 215.747667 
L 873.51019 215.507565 
L 877.214006 213.758478 
L 880.917822 211.868551 
L 884.621638 211.628356 
L 888.325455 211.074338 
L 888.325455 211.074338 
" clip-path="url(#p3a3f2f5cce)" style="fill: none; stroke: #1f77b4; stroke-width: 1.5; stroke-linecap: square"/>
   </g>
   <g id="line2d_34">
    <path d="M 150.834545 480.248549 
L 154.54053 461.607162 
L 158.246514 460.9176 
L 161.952499 460.509685 
L 165.658483 456.750373 
L 169.364468 450.076107 
L 173.070452 440.855086 
L 180.482421 421.502059 
L 184.188406 409.433865 
L 187.89439 396.782879 
L 191.600375 388.151701 
L 195.306359 378.01967 
L 199.012344 371.267006 
L 202.718328 365.556895 
L 206.424312 360.695942 
L 210.130297 359.145576 
L 213.836281 359.173019 
L 224.954235 353.459064 
L 228.660219 354.234878 
L 232.366204 354.662017 
L 236.072188 356.080245 
L 239.778173 355.540492 
L 243.484157 355.427905 
L 247.190142 356.349666 
L 250.896126 356.381227 
L 254.602111 356.688465 
L 258.308095 357.246917 
L 262.014079 355.872461 
L 265.720064 353.846128 
L 269.426048 352.789908 
L 273.132033 352.464992 
L 276.838017 351.268811 
L 280.544002 350.702815 
L 284.249986 348.453399 
L 287.955971 346.722924 
L 291.661955 346.548545 
L 295.36794 345.116678 
L 299.073924 342.641912 
L 302.779909 341.094683 
L 306.485893 340.010196 
L 310.191878 338.533117 
L 313.897862 338.213346 
L 317.603847 336.884933 
L 321.309831 335.188215 
L 328.7218 335.746535 
L 336.133769 331.815346 
L 339.839753 329.067786 
L 343.545738 326.063233 
L 350.957707 323.383722 
L 354.663691 321.502009 
L 362.07566 316.71531 
L 365.781645 313.544756 
L 369.487629 311.900005 
L 373.193614 312.547302 
L 376.899598 308.742652 
L 380.605582 306.158472 
L 384.311567 304.719542 
L 388.017551 303.947521 
L 391.723536 302.150783 
L 395.42952 299.071398 
L 399.135505 297.010903 
L 402.841489 295.579475 
L 406.547474 293.667512 
L 410.253458 289.596718 
L 413.959443 288.598141 
L 417.665427 284.945137 
L 421.371412 280.423037 
L 425.077396 276.612049 
L 428.783381 271.711896 
L 432.489365 270.080777 
L 436.195349 266.780032 
L 443.607318 262.482691 
L 447.313303 261.311463 
L 451.019287 256.976554 
L 454.725272 254.418084 
L 458.431256 252.833824 
L 462.137241 252.483116 
L 465.843225 249.859062 
L 469.54921 247.494541 
L 473.255194 244.074671 
L 484.373148 238.7199 
L 488.079132 237.994622 
L 491.785116 236.991194 
L 502.90307 233.485702 
L 506.609054 232.514877 
L 510.315039 231.078822 
L 514.021023 229.337392 
L 517.727008 227.399539 
L 521.432992 221.940596 
L 525.138977 218.546923 
L 528.844961 213.594854 
L 532.550946 212.724027 
L 536.25693 209.256354 
L 539.962915 204.880857 
L 543.668899 202.856316 
L 547.374884 202.230438 
L 551.080868 200.564618 
L 554.786852 198.029512 
L 558.492837 197.80303 
L 562.198821 196.927535 
L 565.904806 196.775681 
L 569.61079 196.286154 
L 573.316775 194.154051 
L 577.022759 194.252137 
L 580.728744 191.769243 
L 584.434728 189.819878 
L 588.140713 186.355383 
L 591.846697 183.346758 
L 595.552682 182.70728 
L 599.258666 182.785609 
L 602.964651 182.314426 
L 606.670635 179.827657 
L 610.376619 177.913287 
L 614.082604 176.714658 
L 617.788588 178.429091 
L 621.494573 177.986654 
L 625.200557 178.668688 
L 628.906542 180.25135 
L 632.612526 180.340863 
L 636.318511 177.386667 
L 640.024495 175.53704 
L 643.73048 177.085983 
L 647.436464 175.999912 
L 651.142449 174.764936 
L 654.848433 172.321026 
L 658.554418 170.022702 
L 662.260402 168.903417 
L 665.966386 166.574327 
L 669.672371 165.105761 
L 673.378355 162.736478 
L 677.08434 163.411148 
L 680.790324 162.182169 
L 684.496309 163.902644 
L 688.202293 161.707931 
L 691.908278 158.648428 
L 695.614262 157.191187 
L 699.320247 156.60665 
L 703.026231 156.214617 
L 706.732216 155.400522 
L 710.4382 154.74076 
L 714.144185 155.988519 
L 717.850169 155.55923 
L 721.556153 154.237108 
L 725.262138 153.567176 
L 728.968122 153.388073 
L 732.674107 151.25484 
L 736.380091 150.66175 
L 740.086076 149.494797 
L 743.79206 147.844552 
L 747.498045 146.676082 
L 751.204029 145.933061 
L 754.910014 146.420994 
L 758.615998 146.085627 
L 762.321983 144.746597 
L 766.027967 141.947666 
L 769.733952 139.758291 
L 773.439936 138.390315 
L 777.145921 137.886674 
L 780.851905 137.719621 
L 788.263874 137.261307 
L 791.969858 137.997609 
L 795.675843 139.300016 
L 803.087812 138.584577 
L 806.793796 138.625206 
L 810.499781 137.506854 
L 814.205765 136.759183 
L 817.91175 134.929504 
L 821.617734 134.769132 
L 825.323719 132.171917 
L 829.029703 131.889714 
L 832.735688 133.059461 
L 836.441672 130.74794 
L 840.147656 130.339608 
L 843.853641 128.334067 
L 851.26561 128.262872 
L 854.971594 126.363467 
L 858.677579 126.74662 
L 862.383563 125.387476 
L 866.089548 126.454857 
L 869.795532 125.926763 
L 873.501517 123.419119 
L 877.207501 123.632557 
L 880.913486 121.525118 
L 884.61947 121.131554 
L 888.325455 120.473791 
L 888.325455 120.473791 
" clip-path="url(#p3a3f2f5cce)" style="fill: none; stroke: #ff7f0e; stroke-width: 1.5; stroke-linecap: square"/>
   </g>
   <g id="line2d_35">
    <path d="M 150.95783 474.536751 
L 154.663195 462.977695 
L 158.36856 461.694706 
L 162.073925 461.00563 
L 165.77929 457.210369 
L 169.484655 452.394814 
L 173.19002 445.34843 
L 176.895385 435.419441 
L 180.60075 425.159307 
L 184.306115 414.534728 
L 195.42221 378.951083 
L 199.127575 368.05659 
L 202.83294 355.164318 
L 210.24367 341.988228 
L 213.949035 336.26599 
L 217.654399 332.346653 
L 221.359764 328.861934 
L 225.065129 327.834628 
L 228.770494 327.514336 
L 232.475859 328.071132 
L 236.181224 329.088014 
L 239.886589 329.810379 
L 247.297319 329.884527 
L 251.002684 330.865303 
L 254.708049 330.269685 
L 258.413414 329.861815 
L 262.118779 330.788198 
L 265.824144 328.887473 
L 273.234874 327.823845 
L 276.940239 325.882443 
L 280.645604 325.184935 
L 284.350968 324.160394 
L 288.056333 323.534064 
L 291.761698 323.27021 
L 295.467063 321.073195 
L 299.172428 321.112351 
L 302.877793 320.641616 
L 306.583158 320.28645 
L 310.288523 318.606314 
L 313.993888 318.370602 
L 317.699253 316.892952 
L 321.404618 317.159906 
L 325.109983 315.306431 
L 328.815348 314.35446 
L 332.520713 312.408546 
L 336.226078 311.594538 
L 339.931443 309.640806 
L 343.636808 308.729365 
L 347.342173 308.52615 
L 351.047537 306.006621 
L 354.752902 304.25101 
L 358.458267 301.946574 
L 362.163632 300.605769 
L 365.868997 300.522905 
L 369.574362 298.851457 
L 373.279727 295.895496 
L 376.985092 293.934376 
L 380.690457 290.297175 
L 384.395822 287.509875 
L 388.101187 285.955883 
L 391.806552 285.818452 
L 395.511917 279.992779 
L 399.217282 277.930604 
L 402.922647 275.140897 
L 406.628012 273.488321 
L 410.333377 271.459477 
L 414.038742 268.371694 
L 417.744107 268.113151 
L 421.449471 266.020238 
L 425.154836 263.31113 
L 428.860201 260.937269 
L 432.565566 258.271173 
L 436.270931 254.827353 
L 443.681661 247.05816 
L 451.092391 242.207779 
L 454.797756 238.300759 
L 458.503121 235.255221 
L 462.208486 233.188371 
L 465.913851 231.662987 
L 469.619216 229.964388 
L 473.324581 227.000536 
L 477.029946 226.399265 
L 480.735311 224.015007 
L 488.14604 216.631649 
L 491.851405 214.224471 
L 495.55677 212.410274 
L 499.262135 211.12233 
L 502.9675 206.660085 
L 506.672865 206.99814 
L 510.37823 205.442682 
L 514.083595 204.074852 
L 517.78896 201.309767 
L 521.494325 199.557865 
L 525.19969 199.383894 
L 528.905055 198.259469 
L 532.61042 196.081163 
L 536.315785 193.484187 
L 540.02115 192.748092 
L 543.726515 189.534978 
L 547.43188 187.910752 
L 551.137245 185.434193 
L 554.842609 183.344303 
L 558.547974 182.361952 
L 562.253339 179.517449 
L 565.958704 178.904745 
L 569.664069 175.575824 
L 573.369434 173.632693 
L 577.074799 172.426446 
L 580.780164 169.480225 
L 584.485529 169.972848 
L 588.190894 165.597134 
L 591.896259 163.280246 
L 595.601624 162.488286 
L 599.306989 163.206308 
L 603.012354 159.584456 
L 606.717719 156.622626 
L 610.423084 154.917845 
L 614.128449 154.160531 
L 617.833814 154.443221 
L 621.539178 151.309152 
L 625.244543 151.373626 
L 628.949908 148.758567 
L 632.655273 146.335582 
L 636.360638 145.221197 
L 640.066003 142.743109 
L 643.771368 141.511799 
L 647.476733 141.243633 
L 651.182098 141.546388 
L 654.887463 141.252109 
L 658.592828 136.970251 
L 662.298193 134.694712 
L 666.003558 132.797581 
L 669.708923 131.712985 
L 673.414288 131.565904 
L 677.119653 130.916822 
L 680.825018 128.379813 
L 684.530383 126.59099 
L 688.235748 123.951064 
L 691.941112 124.233355 
L 695.646477 123.746713 
L 699.351842 120.259567 
L 703.057207 121.231209 
L 706.762572 120.658879 
L 710.467937 121.133608 
L 714.173302 120.42818 
L 717.878667 119.109401 
L 721.584032 118.379122 
L 725.289397 118.16788 
L 728.994762 117.446468 
L 736.405492 114.505876 
L 740.110857 114.983092 
L 747.521587 112.846621 
L 751.226952 111.350353 
L 762.343046 103.564727 
L 766.048411 102.078838 
L 769.753776 103.563394 
L 773.459141 103.104773 
L 777.164506 100.975226 
L 780.869871 101.07783 
L 784.575236 100.160079 
L 788.280601 99.409745 
L 791.985966 98.526521 
L 795.691331 97.314776 
L 799.396696 96.415962 
L 803.102061 95.735064 
L 806.807426 95.183278 
L 810.512791 96.23157 
L 814.218156 96.564554 
L 821.628886 93.403712 
L 825.33425 92.531937 
L 829.039615 90.45995 
L 832.74498 89.304522 
L 836.450345 89.852281 
L 840.15571 88.513197 
L 843.861075 87.691792 
L 847.56644 88.414756 
L 851.271805 87.374914 
L 854.97717 87.71255 
L 858.682535 87.391007 
L 862.3879 85.390875 
L 866.093265 85.415271 
L 869.79863 85.56682 
L 873.503995 86.217978 
L 877.20936 85.457579 
L 880.914725 85.285535 
L 884.62009 85.294262 
L 888.325455 84.386649 
L 888.325455 84.386649 
" clip-path="url(#p3a3f2f5cce)" style="fill: none; stroke: #2ca02c; stroke-width: 1.5; stroke-linecap: square"/>
   </g>
   <g id="patch_3">
    <path d="M 113.96 503.8 
L 113.96 10.8 
" style="fill: none; stroke: #000000; stroke-width: 0.8; stroke-linejoin: miter; stroke-linecap: square"/>
   </g>
   <g id="patch_4">
    <path d="M 925.2 503.8 
L 925.2 10.8 
" style="fill: none; stroke: #000000; stroke-width: 0.8; stroke-linejoin: miter; stroke-linecap: square"/>
   </g>
   <g id="patch_5">
    <path d="M 113.96 503.8 
L 925.2 503.8 
" style="fill: none; stroke: #000000; stroke-width: 0.8; stroke-linejoin: miter; stroke-linecap: square"/>
   </g>
   <g id="patch_6">
    <path d="M 113.96 10.8 
L 925.2 10.8 
" style="fill: none; stroke: #000000; stroke-width: 0.8; stroke-linejoin: miter; stroke-linecap: square"/>
   </g>
   <g id="legend_1">
    <g id="patch_7">
     <path d="M 131.46 140.885938 
L 402.401406 140.885938 
Q 407.401406 140.885938 407.401406 135.885938 
L 407.401406 28.3 
Q 407.401406 23.3 402.401406 23.3 
L 131.46 23.3 
Q 126.46 23.3 126.46 28.3 
L 126.46 135.885938 
Q 126.46 140.885938 131.46 140.885938 
z
" style="fill: #ffffff; opacity: 0.8; stroke: #cccccc; stroke-linejoin: miter"/>
    </g>
    <g id="line2d_36">
     <path d="M 136.46 43.546094 
L 161.46 43.546094 
L 186.46 43.546094 
" style="fill: none; stroke: #1f77b4; stroke-width: 1.5; stroke-linecap: square"/>
    </g>
    <g id="text_20">
     <!-- Normal replay -->
     <g transform="translate(206.46 52.296094)scale(0.25 -0.25)">
      <defs>
       <path id="DejaVuSans-4e" d="M 628 4666 
L 1478 4666 
L 3547 763 
L 3547 4666 
L 4159 4666 
L 4159 0 
L 3309 0 
L 1241 3903 
L 1241 0 
L 628 0 
L 628 4666 
z
" transform="scale(0.015625)"/>
       <path id="DejaVuSans-6c" d="M 603 4863 
L 1178 4863 
L 1178 0 
L 603 0 
L 603 4863 
z
" transform="scale(0.015625)"/>
       <path id="DejaVuSans-79" d="M 2059 -325 
Q 1816 -950 1584 -1140 
Q 1353 -1331 966 -1331 
L 506 -1331 
L 506 -850 
L 844 -850 
Q 1081 -850 1212 -737 
Q 1344 -625 1503 -206 
L 1606 56 
L 191 3500 
L 800 3500 
L 1894 763 
L 2988 3500 
L 3597 3500 
L 2059 -325 
z
" transform="scale(0.015625)"/>
      </defs>
      <use xlink:href="#DejaVuSans-4e"/>
      <use xlink:href="#DejaVuSans-6f" x="74.804688"/>
      <use xlink:href="#DejaVuSans-72" x="135.986328"/>
      <use xlink:href="#DejaVuSans-6d" x="175.349609"/>
      <use xlink:href="#DejaVuSans-61" x="272.761719"/>
      <use xlink:href="#DejaVuSans-6c" x="334.041016"/>
      <use xlink:href="#DejaVuSans-20" x="361.824219"/>
      <use xlink:href="#DejaVuSans-72" x="393.611328"/>
      <use xlink:href="#DejaVuSans-65" x="432.474609"/>
      <use xlink:href="#DejaVuSans-70" x="493.998047"/>
      <use xlink:href="#DejaVuSans-6c" x="557.474609"/>
      <use xlink:href="#DejaVuSans-61" x="585.257812"/>
      <use xlink:href="#DejaVuSans-79" x="646.537109"/>
     </g>
    </g>
    <g id="line2d_37">
     <path d="M 136.46 80.241406 
L 161.46 80.241406 
L 186.46 80.241406 
" style="fill: none; stroke: #ff7f0e; stroke-width: 1.5; stroke-linecap: square"/>
    </g>
    <g id="text_21">
     <!-- Elite strategy 1 -->
     <g transform="translate(206.46 88.991406)scale(0.25 -0.25)">
      <defs>
       <path id="DejaVuSans-45" d="M 628 4666 
L 3578 4666 
L 3578 4134 
L 1259 4134 
L 1259 2753 
L 3481 2753 
L 3481 2222 
L 1259 2222 
L 1259 531 
L 3634 531 
L 3634 0 
L 628 0 
L 628 4666 
z
" transform="scale(0.015625)"/>
       <path id="DejaVuSans-74" d="M 1172 4494 
L 1172 3500 
L 2356 3500 
L 2356 3053 
L 1172 3053 
L 1172 1153 
Q 1172 725 1289 603 
Q 1406 481 1766 481 
L 2356 481 
L 2356 0 
L 1766 0 
Q 1100 0 847 248 
Q 594 497 594 1153 
L 594 3053 
L 172 3053 
L 172 3500 
L 594 3500 
L 594 4494 
L 1172 4494 
z
" transform="scale(0.015625)"/>
       <path id="DejaVuSans-67" d="M 2906 1791 
Q 2906 2416 2648 2759 
Q 2391 3103 1925 3103 
Q 1463 3103 1205 2759 
Q 947 2416 947 1791 
Q 947 1169 1205 825 
Q 1463 481 1925 481 
Q 2391 481 2648 825 
Q 2906 1169 2906 1791 
z
M 3481 434 
Q 3481 -459 3084 -895 
Q 2688 -1331 1869 -1331 
Q 1566 -1331 1297 -1286 
Q 1028 -1241 775 -1147 
L 775 -588 
Q 1028 -725 1275 -790 
Q 1522 -856 1778 -856 
Q 2344 -856 2625 -561 
Q 2906 -266 2906 331 
L 2906 616 
Q 2728 306 2450 153 
Q 2172 0 1784 0 
Q 1141 0 747 490 
Q 353 981 353 1791 
Q 353 2603 747 3093 
Q 1141 3584 1784 3584 
Q 2172 3584 2450 3431 
Q 2728 3278 2906 2969 
L 2906 3500 
L 3481 3500 
L 3481 434 
z
" transform="scale(0.015625)"/>
      </defs>
      <use xlink:href="#DejaVuSans-45"/>
      <use xlink:href="#DejaVuSans-6c" x="63.183594"/>
      <use xlink:href="#DejaVuSans-69" x="90.966797"/>
      <use xlink:href="#DejaVuSans-74" x="118.75"/>
      <use xlink:href="#DejaVuSans-65" x="157.958984"/>
      <use xlink:href="#DejaVuSans-20" x="219.482422"/>
      <use xlink:href="#DejaVuSans-73" x="251.269531"/>
      <use xlink:href="#DejaVuSans-74" x="303.369141"/>
      <use xlink:href="#DejaVuSans-72" x="342.578125"/>
      <use xlink:href="#DejaVuSans-61" x="383.691406"/>
      <use xlink:href="#DejaVuSans-74" x="444.970703"/>
      <use xlink:href="#DejaVuSans-65" x="484.179688"/>
      <use xlink:href="#DejaVuSans-67" x="545.703125"/>
      <use xlink:href="#DejaVuSans-79" x="609.179688"/>
      <use xlink:href="#DejaVuSans-20" x="668.359375"/>
      <use xlink:href="#DejaVuSans-31" x="700.146484"/>
     </g>
    </g>
    <g id="line2d_38">
     <path d="M 136.46 116.936719 
L 161.46 116.936719 
L 186.46 116.936719 
" style="fill: none; stroke: #2ca02c; stroke-width: 1.5; stroke-linecap: square"/>
    </g>
    <g id="text_22">
     <!-- Elite strategy 3 -->
     <g transform="translate(206.46 125.686719)scale(0.25 -0.25)">
      <defs>
       <path id="DejaVuSans-33" d="M 2597 2516 
Q 3050 2419 3304 2112 
Q 3559 1806 3559 1356 
Q 3559 666 3084 287 
Q 2609 -91 1734 -91 
Q 1441 -91 1130 -33 
Q 819 25 488 141 
L 488 750 
Q 750 597 1062 519 
Q 1375 441 1716 441 
Q 2309 441 2620 675 
Q 2931 909 2931 1356 
Q 2931 1769 2642 2001 
Q 2353 2234 1838 2234 
L 1294 2234 
L 1294 2753 
L 1863 2753 
Q 2328 2753 2575 2939 
Q 2822 3125 2822 3475 
Q 2822 3834 2567 4026 
Q 2313 4219 1838 4219 
Q 1578 4219 1281 4162 
Q 984 4106 628 3988 
L 628 4550 
Q 988 4650 1302 4700 
Q 1616 4750 1894 4750 
Q 2613 4750 3031 4423 
Q 3450 4097 3450 3541 
Q 3450 3153 3228 2886 
Q 3006 2619 2597 2516 
z
" transform="scale(0.015625)"/>
      </defs>
      <use xlink:href="#DejaVuSans-45"/>
      <use xlink:href="#DejaVuSans-6c" x="63.183594"/>
      <use xlink:href="#DejaVuSans-69" x="90.966797"/>
      <use xlink:href="#DejaVuSans-74" x="118.75"/>
      <use xlink:href="#DejaVuSans-65" x="157.958984"/>
      <use xlink:href="#DejaVuSans-20" x="219.482422"/>
      <use xlink:href="#DejaVuSans-73" x="251.269531"/>
      <use xlink:href="#DejaVuSans-74" x="303.369141"/>
      <use xlink:href="#DejaVuSans-72" x="342.578125"/>
      <use xlink:href="#DejaVuSans-61" x="383.691406"/>
      <use xlink:href="#DejaVuSans-74" x="444.970703"/>
      <use xlink:href="#DejaVuSans-65" x="484.179688"/>
      <use xlink:href="#DejaVuSans-67" x="545.703125"/>
      <use xlink:href="#DejaVuSans-79" x="609.179688"/>
      <use xlink:href="#DejaVuSans-20" x="668.359375"/>
      <use xlink:href="#DejaVuSans-33" x="700.146484"/>
     </g>
    </g>
   </g>
  </g>
 </g>
 <defs>
  <clipPath id="p3a3f2f5cce">
   <rect x="113.96" y="10.8" width="811.24" height="493"/>
  </clipPath>
 </defs>
</svg>
